<?xml version='1.0' encoding='utf-8'?>
<svg xmlns="http://www.w3.org/2000/svg" width="1920" height="1080" viewBox="0 0 1920 1080" data-theme="light">
  <style>
        @font-face {
            font-family: 'Inter';
            src: url('assets/fonts/Inter-Regular.ttf') format('truetype');
            font-weight: 400;
            font-style: normal;
            font-display: swap;
        }
        @font-face {
            font-family: 'Inter';
            src: url('assets/fonts/Inter-Bold.ttf') format('truetype');
            font-weight: 600;
            font-style: normal;
            font-display: swap;
        }
        @font-face {
            font-family: 'Inter';
            src: url('assets/fonts/Inter-Bold.ttf') format('truetype');
            font-weight: 800;
            font-style: normal;
            font-display: swap;
        }
        
:root {
    --background: #f8fafc;
    --panel: #ffffff;
    --primary-text: #0f172a;
    --muted-text: #64748b;
    --inverse-text: #ffffff;
    --border: #e2e8f0;
    --shadow-color: #000000;
    --icon-pad-bg: #1e293b;
    --art-glow: #0891b2;
    --art-glow-opacity: 0.10;
    --art-sheen: #ffffff;
    --art-sheen-opacity: 0.34;
    --art-shadow: #0f172a;
    --art-shadow-opacity: 0.14;
    --art-muted-line: #94a3b8;
    --art-panel-tint: #f1f5f9;
    --font-family: 'Inter', 'Segoe UI', 'Kalam', Roboto, Helvetica, Arial, sans-serif;
    --radius-xl: 16px;
    --font-family-headline: 'Inter', 'Segoe UI', 'Kalam', Roboto, Helvetica, Arial, sans-serif;
    --font-family-body: 'Inter', 'Segoe UI', 'Kalam', Roboto, Helvetica, Arial, sans-serif;
    --font-heading: 'Inter', 'Segoe UI', 'Kalam', Roboto, Helvetica, Arial, sans-serif;
    --font-body: 'Inter', 'Segoe UI', 'Kalam', Roboto, Helvetica, Arial, sans-serif;
    --font-size-h1: 56px;
    --font-size-h2: 40px;
    --font-size-h3: 28px;
    --font-size-body: 24px;
    --font-size-caption: 18px;
    --secondary-text: var(--muted-text);
    --panel-border: var(--border);
    --font-weight-normal: 400;
    --font-weight-medium: 500;
    --font-weight-semibold: 600;
    --font-weight-bold: 700;
    --spacing-gutter-pct: 0.07;
    --spacing-top-pct: 0.15;
    --spacing-bottom-pct: 0.07;
    --spacing-title-y-pct: 0.055;
    --accent-1: #2563eb;
    --accent-2: #16a34a;
    --accent-3: #ea580c;
    --accent-4: #7c3aed;
    --accent-5: #0284c7;
    --accent-6: #475569;
}
:root[data-theme="dark"] {
    --background: #0f172a;
    --panel: #1e293b;
    --primary-text: #f1f5f9;
    --muted-text: #94a3b8;
    --inverse-text: #0f172a;
    --border: #334155;
    --shadow-color: #000000;
    --icon-pad-bg: #1e293b;
    --art-glow: #7dd3fc;
    --art-glow-opacity: 0.18;
    --art-sheen: #ffffff;
    --art-sheen-opacity: 0.18;
    --art-shadow: #000000;
    --art-shadow-opacity: 0.28;
    --art-muted-line: #64748b;
    --art-panel-tint: #1e293b;
    --accent-1: #60a5fa;
    --accent-2: #4ade80;
    --accent-3: #f97316;
    --accent-4: #a78bfa;
    --accent-5: #38bdf8;
    --accent-6: #94a3b8;
}
:root[data-theme="light"] {
    --background: #f8fafc;
    --panel: #ffffff;
    --primary-text: #0f172a;
    --muted-text: #64748b;
    --inverse-text: #ffffff;
    --border: #e2e8f0;
    --shadow-color: #000000;
    --icon-pad-bg: #1e293b;
    --art-glow: #0891b2;
    --art-glow-opacity: 0.10;
    --art-sheen: #ffffff;
    --art-sheen-opacity: 0.34;
    --art-shadow: #0f172a;
    --art-shadow-opacity: 0.14;
    --art-muted-line: #94a3b8;
    --art-panel-tint: #f1f5f9;
    --accent-1: #2563eb;
    --accent-2: #16a34a;
    --accent-3: #ea580c;
    --accent-4: #7c3aed;
    --accent-5: #0284c7;
    --accent-6: #475569;
}</style>
  <rect x="0" y="0" width="1.92E+3" height="1.08E+3" fill="#252a34" stroke="none" id="programmatic_background"/>
  <line id="HEADER_DECOR" x1="960.0" x2="1080.0" y1="135.0" y2="135.0" stroke="var(--accent-1)" stroke-width="6" stroke-linecap="round"/>
  <defs>
    <pattern id="svgb5308b5f-napkin-hatch" patternUnits="userSpaceOnUse" width="12" height="12">
      <path d="M -3 12 L 12 -3 M 0 15 L 15 0" fill="none" stroke="var(--primary-text)" stroke-width="1" stroke-opacity="0.05"/>
    </pattern>
    <radialGradient id="svgb5308b5f-universal-edge-vignette" cx="50%" cy="50%" r="72%">
      <stop offset="0%" stop-color="var(--background)" stop-opacity="0"/>
      <stop offset="72%" stop-color="var(--background)" stop-opacity="0.12"/>
      <stop offset="100%" stop-color="var(--primary-text)" stop-opacity="0.08"/>
    </radialGradient>
    <linearGradient id="svgb5308b5f-universal-surface-sheen" x1="0%" y1="0%" x2="100%" y2="100%">
      <stop offset="0%" stop-color="var(--art-sheen)" stop-opacity="var(--art-sheen-opacity)"/>
      <stop offset="46%" stop-color="var(--art-sheen)" stop-opacity="0.035"/>
      <stop offset="100%" stop-color="var(--art-panel-tint)" stop-opacity="0.14"/>
    </linearGradient>
    <radialGradient id="svgb5308b5f-universal-icon-aura" cx="50%" cy="42%" r="64%">
      <stop offset="0%" stop-color="var(--art-glow)" stop-opacity="var(--art-glow-opacity)"/>
      <stop offset="100%" stop-color="var(--background)" stop-opacity="0"/>
    </radialGradient>
    <filter id="svgb5308b5f-text-glow" x="-20%" y="-20%" width="140%" height="140%">
      <feDropShadow dx="0" dy="0" stdDeviation="2" flood-color="#000000" flood-opacity="0.4"/>
    </filter>
    <filter id="svgb5308b5f-shadow" x="-30%" y="-30%" width="160%" height="160%">
      <feDropShadow dx="0" dy="2" stdDeviation="3" flood-color="#000000" flood-opacity="0.08"/>
      <feDropShadow dx="0" dy="6" stdDeviation="10" flood-color="#000000" flood-opacity="0.12"/>
    </filter>
    <marker id="svgb5308b5f-arrowhead" markerWidth="10" markerHeight="7" refX="9" refY="3.5" orient="auto" markerUnits="strokeWidth">
      <polygon points="0 0, 10 3.5, 0 7" fill="var(--muted-text)" opacity="0.6"/>
    </marker>
  </defs>
  <rect width="100%" height="100%" fill="var(--background)" id="CANVAS_BG"/>
  <rect width="100%" height="100%" fill="url(#svgb5308b5f-napkin-hatch)"/>
  <rect id="UNIVERSAL_EDGE_VIGNETTE" width="100%" height="100%" fill="url(#svgb5308b5f-universal-edge-vignette)" opacity="0.62"/>
  <text id="TITLE" x="960.0" y="59" text-anchor="middle" font-weight="700" font-size="63" fill="#0f172a" style="font-size: 60px; font-family: Inter, Segoe UI, Kalam, Roboto, Helvetica, Arial, sans-serif; font-weight: 700; letter-spacing:-1.2px;" data-final-font-size="60">
    <tspan x="960.0" dy="68.00px">Heschl's Gyrus Function</tspan>
  </text>
  <rect id="TITLE_FRAME" x="134" y="59" width="1652" height="103" fill="none"/>
  <g id="DIAGRAM_SCALER" transform="translate(50.3, 35.1) scale(0.95)">
    <g transform="translate(345.0, 360.0)">
      <rect id="ITEM_1_BG" x="-270" y="-135" width="540" height="270" rx="22" fill="var(--accent-3)" stroke="var(--accent-1)" stroke-width="2" fill-opacity="1.0"/>
      <circle cx="-180" cy="0" r="50" fill="var(--accent-1)" opacity="0.15"/>
      <g transform="translate(-30.0, -15.0)">
        <text id="ITEM_1_HEAD" text-anchor="start" font-weight="bold" font-size="36" fill="var(--primary-text)" x="-100.0" y="-84.0" data-bg-id="ITEM_1_BG" fill-opacity="1.0" style="font-size: 30px; font-family: Inter, Segoe UI, Kalam, Roboto, Helvetica, Arial, sans-serif; font-weight: 700; letter-spacing:-0.4px;" data-final-font-size="30">
          <tspan x="-100.0" dy="36.57px">Physical Acoustics</tspan>
        </text>
        <rect id="ITEM_1_HEAD_FRAME" x="-100" y="-84" width="380" height="48" fill="none"/>
        <text id="ITEM_1_BODY" text-anchor="start" font-size="24" fill="var(--primary-text)" x="-100.0" y="-8.0" data-bg-id="ITEM_1_BG" style="font-size: 24px; font-family: Inter, Segoe UI, Kalam, Roboto, Helvetica, Arial, sans-serif; font-weight: 400;" data-final-font-size="24">
          <tspan x="-100.0" dy="46.25px">Models based on raw sound physics</tspan>
        </text>
        <rect id="ITEM_1_BODY_FRAME" x="-100" y="-8" width="430" height="138" fill="none"/>
        <rect id="ITEM_1_TEXT_FRAME" x="-100" y="-4" width="380" height="128" fill="none"/>
      </g>
      <circle id="ITEM_1_PAD" cx="-186" cy="0.0" r="48" fill="var(--icon-pad-bg)" stroke="var(--primary-text)" opacity="0.9" fill-opacity="0.9" stroke-width="2"/>
      <circle id="ITEM_1_PAD_INNER" cx="-186" cy="0.0" r="37.44" fill="var(--accent-3)" fill-opacity="0.22"/>
      <circle cx="-186" cy="0.0" r="38" fill="none" stroke="var(--accent-1)" stroke-width="3" stroke-dasharray="6 4"/>
      <g id="ITEM_1_ICON" transform="translate(-224, -38)" data-icon-size="76" stroke-dasharray="6 4">
        <g transform="translate(-5.428571428571429,-5.767857142857142) scale(2.7142857142857144)">
          <path d="M4.71839 18.0233C5.11525 17.458 5.8952 17.3215 6.46045 17.7184L18.5318 26.1936L17.0946 28.2406L5.02328 19.7653C4.45803 19.3685 4.32152 18.5885 4.71839 18.0233Z" fill="#5092FF"/>
          <path d="M18.5013 2.80347C18.8302 2.3598 19.4615 2.25982 19.9114 2.58017L21.5841 3.77124C22.034 4.09158 22.1321 4.71094 21.8032 5.15461L13.1102 16.8809C12.4436 17.7801 11.1641 17.9827 10.2523 17.3335C9.34053 16.6842 9.14176 15.429 9.80835 14.5298L18.5013 2.80347Z" fill="#636363"/>
          <path d="M18.0472 3.66594C16.8384 3.31432 15.3804 3.86071 14.5971 4.91739L11.7749 8.7243L11.9999 10.0001L10.6024 10.306L10.3989 10.5805C9.07399 12.3677 9.47824 14.8692 11.3018 16.1677C13.1254 17.4662 15.6778 17.07 17.0027 15.2828L17.1623 15.0675L16.9999 13.5001H18.3242L18.4883 13.2787C21.992 13.9302 23.8684 16.851 23.963 19.8545C24.0149 21.5041 23.5209 23.1307 22.4806 24.3899C21.4537 25.6329 19.8112 26.6185 17.3793 26.8486C16.5451 26.9276 15.9304 27.6956 16.0062 28.564C16.082 29.4325 16.8197 30.0725 17.6539 29.9935C20.7829 29.6974 23.1847 28.3804 24.7802 26.4491C26.3624 24.5339 27.069 22.1145 26.9946 19.751C26.8719 15.8564 24.6058 11.9837 20.5048 10.5586L21.2008 9.61967C21.9842 8.56299 22.0639 7.03517 21.3491 6.01708L18.0472 3.66594Z" fill="#BEBEBE"/>
          <path d="M2 29.2C2 27.4327 3.43269 26 5.2 26H26.8C28.5673 26 30 27.4327 30 29.2C30 29.6418 29.6418 30 29.2 30H2.8C2.35817 30 2 29.6418 2 29.2Z" fill="#9B9B9B"/>
          <path d="M11.7757 8.70947L18.3343 13.4746L17.1588 15.0927L10.6001 10.3275L11.7757 8.70947Z" fill="#D3D3D3"/>
        </g>
      </g>
    </g>
    <g transform="translate(960.0, 360.0)">
      <rect id="ITEM_2_BG" x="-270" y="-135" width="540" height="270" rx="22" fill="var(--accent-4)" stroke="var(--accent-2)" stroke-width="2" fill-opacity="1.0"/>
      <circle cx="-180" cy="0" r="50" fill="var(--accent-1)" opacity="0.15"/>
      <g transform="translate(-30.0, -15.0)">
        <text id="ITEM_2_HEAD" text-anchor="start" font-weight="bold" font-size="36" fill="var(--inverse-text)" x="-100.0" y="-84.0" data-bg-id="ITEM_2_BG" fill-opacity="1.0" style="font-size: 30px; font-family: Inter, Segoe UI, Kalam, Roboto, Helvetica, Arial, sans-serif; font-weight: 700; letter-spacing:-0.4px;" data-final-font-size="30">
          <tspan x="-100.0" dy="36.57px">Subjective Ratings</tspan>
        </text>
        <rect id="ITEM_2_HEAD_FRAME" x="-100" y="-84" width="380" height="48" fill="none"/>
        <text id="ITEM_2_BODY" text-anchor="start" font-size="24" fill="var(--inverse-text)" x="-100.0" y="-8.0" data-bg-id="ITEM_2_BG" style="font-size: 24px; font-family: Inter, Segoe UI, Kalam, Roboto, Helvetica, Arial, sans-serif; font-weight: 400;" data-final-font-size="24">
          <tspan x="-100.0" dy="40.73px">Models grounded in listener</tspan>
          <tspan x="-100.0" dy="27.60px">descriptions</tspan>
        </text>
        <rect id="ITEM_2_BODY_FRAME" x="-100" y="-8" width="430" height="138" fill="none"/>
        <rect id="ITEM_2_TEXT_FRAME" x="-100" y="-4" width="380" height="128" fill="none"/>
      </g>
      <circle id="ITEM_2_PAD" cx="-186" cy="0.0" r="48" fill="var(--icon-pad-bg)" stroke="var(--primary-text)" opacity="0.9" fill-opacity="0.9" stroke-width="2"/>
      <circle id="ITEM_2_PAD_INNER" cx="-186" cy="0.0" r="37.44" fill="var(--accent-4)" fill-opacity="0.22"/>
      <circle cx="-186" cy="0.0" r="38" fill="none" stroke="var(--accent-2)" stroke-width="3" stroke-dasharray="6 4"/>
      <g id="ITEM_2_ICON" transform="translate(-224, -38)" data-icon-size="76" stroke-dasharray="6 4">
        <g transform="translate(-3.2203389830508473,-1.6101694915254203) scale(3.4350282485875705)" vector-effect="non-scaling-stroke" stroke-width="2.62" stroke-linecap="round" stroke-linejoin="round" stroke-opacity="1.0">
          <path d="m12 14 4-4" vector-effect="non-scaling-stroke" fill="none" stroke="#f1f5f9"/>
          <path d="M3.34 19a10 10 0 1 1 17.32 0" vector-effect="non-scaling-stroke" fill="none" stroke="#f1f5f9"/>
        </g>
      </g>
    </g>
    <g transform="translate(1575.0, 360.0)">
      <rect id="ITEM_3_BG" x="-270" y="-135" width="540" height="270" rx="22" fill="var(--accent-5)" stroke="var(--accent-3)" stroke-width="2" fill-opacity="1.0"/>
      <circle cx="-180" cy="0" r="50" fill="var(--accent-1)" opacity="0.15"/>
      <g transform="translate(-30.0, -15.0)">
        <text id="ITEM_3_HEAD" text-anchor="start" font-weight="bold" font-size="36" fill="var(--primary-text)" x="-100.0" y="-84.0" data-bg-id="ITEM_3_BG" fill-opacity="1.0" style="font-size: 30px; font-family: Inter, Segoe UI, Kalam, Roboto, Helvetica, Arial, sans-serif; font-weight: 700; letter-spacing:-0.4px;" data-final-font-size="30">
          <tspan x="-100.0" dy="36.57px">Cortical Prediction</tspan>
        </text>
        <rect id="ITEM_3_HEAD_FRAME" x="-100" y="-84" width="380" height="48" fill="none"/>
        <text id="ITEM_3_BODY" text-anchor="start" font-size="24" fill="var(--primary-text)" x="-100.0" y="-8.0" data-bg-id="ITEM_3_BG" style="font-size: 24px; font-family: Inter, Segoe UI, Kalam, Roboto, Helvetica, Arial, sans-serif; font-weight: 400;" data-final-font-size="24">
          <tspan x="-100.0" dy="40.73px">Neural responses match perceptual</tspan>
          <tspan x="-100.0" dy="27.60px">models better</tspan>
        </text>
        <rect id="ITEM_3_BODY_FRAME" x="-100" y="-8" width="430" height="138" fill="none"/>
        <rect id="ITEM_3_TEXT_FRAME" x="-100" y="-4" width="380" height="128" fill="none"/>
      </g>
      <circle id="ITEM_3_PAD" cx="-186" cy="0.0" r="48" fill="var(--icon-pad-bg)" stroke="var(--primary-text)" opacity="0.9" fill-opacity="0.9" stroke-width="2"/>
      <circle id="ITEM_3_PAD_INNER" cx="-186" cy="0.0" r="37.44" fill="var(--accent-5)" fill-opacity="0.22"/>
      <circle cx="-186" cy="0.0" r="38" fill="none" stroke="var(--accent-3)" stroke-width="3" stroke-dasharray="6 4"/>
      <g id="ITEM_3_ICON" transform="translate(-224, -38)" data-icon-size="76" stroke-dasharray="6 4">
        <g transform="translate(-12.666666666666668,-12.666666666666668) scale(4.222222222222222)" vector-effect="non-scaling-stroke" stroke-width="2.62" stroke-linecap="round" stroke-linejoin="round" stroke-opacity="1.0">
          <path d="M4 4m0 2.667a2.667 2.667 0 0 1 2.667 -2.667h10.666a2.667 2.667 0 0 1 2.667 2.667v10.666a2.667 2.667 0 0 1 -2.667 2.667h-10.666a2.667 2.667 0 0 1 -2.667 -2.667z" vector-effect="non-scaling-stroke" fill="none" stroke="#f1f5f9"/>
          <path d="M9 15.5v.25c0 .69 .56 1.25 1.25 1.25c.71 0 1.304 -.538 1.374 -1.244l.752 -7.512a1.381 1.381 0 0 1 1.374 -1.244c.69 0 1.25 .56 1.25 1.25v.25" vector-effect="non-scaling-stroke" fill="none" stroke="#f1f5f9"/>
          <path d="M9 12h6" vector-effect="non-scaling-stroke" fill="none" stroke="#f1f5f9"/>
        </g>
      </g>
    </g>
    <g transform="translate(652.5, 720.0)">
      <rect id="ITEM_4_BG" x="-270" y="-135" width="540" height="270" rx="22" fill="var(--accent-6)" stroke="var(--accent-4)" stroke-width="2" fill-opacity="1.0"/>
      <circle cx="-180" cy="0" r="50" fill="var(--accent-1)" opacity="0.15"/>
      <g transform="translate(-30.0, -15.0)">
        <text id="ITEM_4_HEAD" text-anchor="start" font-weight="bold" font-size="36" fill="var(--inverse-text)" x="-100.0" y="-84.0" data-bg-id="ITEM_4_BG" fill-opacity="1.0" style="font-size: 30px; font-family: Inter, Segoe UI, Kalam, Roboto, Helvetica, Arial, sans-serif; font-weight: 700; letter-spacing:-0.4px;" data-final-font-size="30">
          <tspan x="-100.0" dy="36.57px">Right Auditory Areas</tspan>
        </text>
        <rect id="ITEM_4_HEAD_FRAME" x="-100" y="-84" width="380" height="48" fill="none"/>
        <text id="ITEM_4_BODY" text-anchor="start" font-size="24" fill="var(--inverse-text)" x="-100.0" y="-8.0" data-bg-id="ITEM_4_BG" style="font-size: 24px; font-family: Inter, Segoe UI, Kalam, Roboto, Helvetica, Arial, sans-serif; font-weight: 400;" data-final-font-size="24">
          <tspan x="-100.0" dy="40.73px">Specific regions show strong</tspan>
          <tspan x="-100.0" dy="27.60px">perceptual alignment</tspan>
        </text>
        <rect id="ITEM_4_BODY_FRAME" x="-100" y="-8" width="430" height="138" fill="none"/>
        <rect id="ITEM_4_TEXT_FRAME" x="-100" y="-4" width="380" height="128" fill="none"/>
      </g>
      <circle id="ITEM_4_PAD" cx="-186" cy="0.0" r="48" fill="var(--icon-pad-bg)" stroke="var(--primary-text)" opacity="0.9" fill-opacity="0.9" stroke-width="2"/>
      <circle id="ITEM_4_PAD_INNER" cx="-186" cy="0.0" r="37.44" fill="var(--accent-6)" fill-opacity="0.22"/>
      <circle cx="-186" cy="0.0" r="38" fill="none" stroke="var(--accent-4)" stroke-width="3" stroke-dasharray="6 4"/>
      <g id="ITEM_4_ICON" transform="translate(-224, -38)" data-icon-size="76" stroke-dasharray="6 4">
        <g transform="translate(0.0,0.0) scale(5.428571428571429)" vector-effect="non-scaling-stroke" stroke-width="2.62" stroke-linecap="round" stroke-linejoin="round" stroke-opacity="1.0">
          <path id="Vector 138" stroke="#f1f5f9" d="M3.75 13.5001H1.42857C0.915736 13.5001 0.5 13.0843 0.5 12.5715v-2.3214" vector-effect="non-scaling-stroke" fill="none"/>
          <path id="Vector 902" stroke="#f1f5f9" d="M13.5 10.2501v2.3214c0 0.5128 -0.4157 0.9286 -0.9286 0.9286H10.25" vector-effect="non-scaling-stroke" fill="none"/>
          <path id="Vector 901" stroke="#f1f5f9" d="M10.25 0.5h2.3214c0.5129 0 0.9286 0.415736 0.9286 0.92857V3.75" vector-effect="non-scaling-stroke" fill="none"/>
          <path id="Vector 900" stroke="#f1f5f9" d="M0.5 3.74998V1.42856c0 -0.51284 0.415736 -0.928575 0.92857 -0.928575H3.75" vector-effect="non-scaling-stroke" fill="none"/>
          <path id="Vector 899" stroke="#f1f5f9" d="M0.5 6.99996h13" vector-effect="non-scaling-stroke" fill="none"/>
        </g>
      </g>
    </g>
    <g transform="translate(1267.5, 720.0)">
      <rect id="ITEM_5_BG" x="-270" y="-135" width="540" height="270" rx="22" fill="var(--accent-1)" stroke="var(--accent-5)" stroke-width="2" fill-opacity="1.0"/>
      <circle cx="-180" cy="0" r="50" fill="var(--accent-1)" opacity="0.15"/>
      <g transform="translate(-30.0, -15.0)">
        <text id="ITEM_5_HEAD" text-anchor="start" font-weight="bold" font-size="36" fill="var(--inverse-text)" x="-100.0" y="-84.0" data-bg-id="ITEM_5_BG" fill-opacity="1.0" style="font-size: 30px; font-family: Inter, Segoe UI, Kalam, Roboto, Helvetica, Arial, sans-serif; font-weight: 700; letter-spacing:-0.4px;" data-final-font-size="30">
          <tspan x="-100.0" dy="36.57px">Experience Driven</tspan>
        </text>
        <rect id="ITEM_5_HEAD_FRAME" x="-100" y="-84" width="380" height="48" fill="none"/>
        <text id="ITEM_5_BODY" text-anchor="start" font-size="24" fill="var(--inverse-text)" x="-100.0" y="-8.0" data-bg-id="ITEM_5_BG" style="font-size: 24px; font-family: Inter, Segoe UI, Kalam, Roboto, Helvetica, Arial, sans-serif; font-weight: 400;" data-final-font-size="24">
          <tspan x="-100.0" dy="40.73px">Plasticity embeds learned</tspan>
          <tspan x="-100.0" dy="27.60px">distinctions in tuning</tspan>
        </text>
        <rect id="ITEM_5_BODY_FRAME" x="-100" y="-8" width="430" height="138" fill="none"/>
        <rect id="ITEM_5_TEXT_FRAME" x="-100" y="-4" width="380" height="128" fill="none"/>
      </g>
      <circle id="ITEM_5_PAD" cx="-186" cy="0.0" r="48" fill="var(--icon-pad-bg)" stroke="var(--primary-text)" opacity="0.9" fill-opacity="0.9" stroke-width="2"/>
      <circle id="ITEM_5_PAD_INNER" cx="-186" cy="0.0" r="37.44" fill="var(--accent-1)" fill-opacity="0.22"/>
      <circle cx="-186" cy="0.0" r="38" fill="none" stroke="var(--accent-5)" stroke-width="3" stroke-dasharray="6 4"/>
      <g id="ITEM_5_ICON" transform="translate(-224, -38)" data-icon-size="76" stroke-dasharray="6 4">
        <g transform="translate(-5.428571428571429,-5.0892857142857135) scale(2.7142857142857144)">
          <path d="M26.5853 2.05627C26.9353 1.90627 27.3353 2.06627 27.4853 2.41627C27.5553 2.57627 27.5553 2.74627 27.4953 2.89627C27.4553 3.03627 27.4453 3.17627 27.5053 3.30627L27.8553 4.07627L27.2053 4.35627L26.8653 3.57627C26.8053 3.44627 26.6953 3.35627 26.5653 3.29627C26.4153 3.22627 26.2953 3.11627 26.2253 2.95627C26.0753 2.60627 26.2353 2.20627 26.5853 2.05627ZM25.9054 3.13624C25.7554 2.78624 25.3554 2.62624 25.0054 2.77624C24.6554 2.92624 24.4954 3.32624 24.6454 3.67624C24.7154 3.83624 24.8354 3.94624 24.9854 4.01624C25.1154 4.07624 25.2254 4.16624 25.2854 4.29624L25.6254 5.07624L26.2754 4.79624L25.9354 4.01624C25.8754 3.88624 25.8854 3.74624 25.9254 3.60624C25.9654 3.46624 25.9654 3.29624 25.9054 3.13624ZM24.3153 3.85621C24.1653 3.50621 23.7653 3.34621 23.4153 3.49621C23.0653 3.64621 22.9053 4.04621 23.0553 4.39621C23.1253 4.55621 23.2453 4.66621 23.3953 4.73621C23.5253 4.79621 23.6353 4.88621 23.6953 5.01621L24.0353 5.79621L24.6853 5.51621L24.3453 4.73621C24.2853 4.60621 24.2853 4.46621 24.3353 4.32621C24.3853 4.17621 24.3853 4.01621 24.3153 3.85621Z" fill="#D3D3D3"/>
          <path d="M16.5253 23.0763C16.6453 21.7063 17.6553 20.5763 19.0153 20.3063C19.5653 20.1963 20.1053 20.0063 20.6253 19.7463C21.3853 19.3663 21.6953 18.4363 21.3153 17.6763C20.9353 16.9163 20.0053 16.6063 19.2453 16.9863C17.9553 17.6363 16.3953 17.3863 15.3653 16.3563C14.0653 15.0563 14.0553 12.9363 15.3453 11.6263C15.9453 11.0163 15.9753 10.0363 15.3753 9.42629C14.7753 8.81629 13.7853 8.81629 13.1853 9.41629C12.2553 10.3463 11.6653 11.4963 11.4253 12.7063C11.1553 14.0663 10.0053 15.0563 8.62532 15.1863C6.96532 15.3363 5.35532 16.0463 4.09532 17.3163C1.26532 20.1763 1.30532 24.8863 4.19532 27.6863C7.04532 30.4563 11.6053 30.4263 14.4253 27.6063C15.6753 26.3463 16.3853 24.7263 16.5253 23.0763Z" fill="#CA0B4A"/>
          <path d="M15.3853 18.0463C15.0753 17.9363 14.7853 17.7563 14.5353 17.5063C14.3853 17.3563 14.2553 17.1863 14.1453 17.0063C13.9753 16.7263 13.8653 16.4163 13.8253 16.1063C13.7653 15.7163 13.5353 15.3863 13.2053 15.1963C13.0653 15.1163 12.9053 15.0663 12.7453 15.0463C12.2753 14.9963 11.8153 15.2163 11.5653 15.6263C11.2553 16.1363 10.6953 16.4663 10.0453 16.4963C8.95527 16.5363 7.91527 16.9463 7.12527 17.7463C7.11527 17.7563 7.11527 17.7563 7.10527 17.7663C6.11527 18.7863 6.13527 20.4163 7.13527 21.4163L9.38527 23.6663C10.3253 24.6063 9.60527 25.8763 9.59527 26.7663C9.59527 26.9263 9.62527 27.0963 9.68527 27.2463C9.95527 27.9463 10.7653 28.2763 11.4653 27.9963C12.2153 27.6963 12.8953 27.2563 13.4753 26.6663C13.9853 26.1563 14.3853 25.5763 14.6853 24.9363C14.9653 24.3163 15.0853 23.6463 15.2053 22.9663C15.3653 22.0763 15.8053 21.2563 16.5253 20.5763C17.0653 19.9863 17.6453 19.6563 18.4653 19.4663C18.6353 19.4263 19.0053 19.2863 19.1553 19.1863C19.4153 19.0163 19.4753 18.8063 19.4053 18.6263C19.1953 18.0263 18.6853 18.2063 18.2953 18.2763C17.6253 18.4063 17.0553 18.3363 16.8753 18.3163C16.8253 18.3063 16.7853 18.3063 16.7353 18.2963C16.4853 18.2563 15.7253 18.1663 15.3853 18.0463Z" fill="#F4F4F4"/>
          <path d="M9.36532 24.7662L6.95532 22.3563C6.85532 22.2563 6.69532 22.2563 6.59532 22.3563L5.52532 23.4062C5.42532 23.5062 5.42532 23.6662 5.52532 23.7662L7.93532 26.1762C8.03532 26.2762 8.19532 26.2762 8.29532 26.1762L9.35532 25.1163C9.46532 25.0263 9.46532 24.8662 9.36532 24.7662Z" fill="#9B9B9B"/>
          <path d="M12.2054 17.9663L13.7354 19.4963C13.9754 19.7363 13.9754 20.1163 13.7354 20.3463C13.4954 20.5763 13.1154 20.5763 12.8854 20.3463L11.3554 18.8163C11.1254 18.5763 11.1254 18.1963 11.3554 17.9663C11.5954 17.7363 11.9754 17.7363 12.2054 17.9663ZM10.1954 19.9862L11.7254 21.5162C11.9554 21.7462 11.9554 22.1262 11.7254 22.3662C11.4854 22.5962 11.1054 22.5962 10.8754 22.3662L9.34535 20.8362C9.11535 20.5962 9.11535 20.2162 9.34535 19.9862C9.58535 19.7562 9.96535 19.7562 10.1954 19.9862Z" fill="#D3D3D3"/>
          <path d="M25.0553 8.53625L24.5 7L23.1753 6.65625L13.6453 16.1863C13.3953 16.4363 13.3953 16.8363 13.6453 17.0763L14.6353 18.0662C14.8853 18.3162 15.2853 18.3162 15.5253 18.0662L25.0553 8.53625Z" fill="#635994"/>
          <path d="M26.1953 8.40626L27.2753 6.59626C27.3953 6.39626 27.6353 6.30626 27.8553 6.39626C28.4253 6.61626 29.0953 6.49626 29.5353 6.01626C30.0753 5.43626 30.0853 4.52626 29.5553 3.94626C29.0353 3.37626 28.2953 3.36626 27.5853 3.68626L23.4853 5.57626C23.0353 5.82626 22.9553 6.43626 23.3153 6.80626L25.0153 8.50626C25.3553 8.83626 25.9153 8.79626 26.1953 8.40626Z" fill="#CA0B4A"/>
        </g>
      </g>
    </g>
  </g>
</svg>
