<?xml version='1.0' encoding='utf-8'?>
<svg xmlns="http://www.w3.org/2000/svg" width="1920" height="1080" viewBox="0 0 1920 1080" data-theme="light">
  <style>
        @font-face {
            font-family: 'Inter';
            src: url('assets/fonts/Inter-Regular.ttf') format('truetype');
            font-weight: 400;
            font-style: normal;
            font-display: swap;
        }
        @font-face {
            font-family: 'Inter';
            src: url('assets/fonts/Inter-Bold.ttf') format('truetype');
            font-weight: 600;
            font-style: normal;
            font-display: swap;
        }
        @font-face {
            font-family: 'Inter';
            src: url('assets/fonts/Inter-Bold.ttf') format('truetype');
            font-weight: 800;
            font-style: normal;
            font-display: swap;
        }
        
:root {
    --background: #f8fafc;
    --panel: #ffffff;
    --primary-text: #0f172a;
    --muted-text: #64748b;
    --inverse-text: #ffffff;
    --border: #e2e8f0;
    --shadow-color: #000000;
    --icon-pad-bg: #1e293b;
    --art-glow: #0891b2;
    --art-glow-opacity: 0.10;
    --art-sheen: #ffffff;
    --art-sheen-opacity: 0.34;
    --art-shadow: #0f172a;
    --art-shadow-opacity: 0.14;
    --art-muted-line: #94a3b8;
    --art-panel-tint: #f1f5f9;
    --font-family: 'Inter', 'Segoe UI', 'Kalam', Roboto, Helvetica, Arial, sans-serif;
    --radius-xl: 16px;
    --font-family-headline: 'Inter', 'Segoe UI', 'Kalam', Roboto, Helvetica, Arial, sans-serif;
    --font-family-body: 'Inter', 'Segoe UI', 'Kalam', Roboto, Helvetica, Arial, sans-serif;
    --font-heading: 'Inter', 'Segoe UI', 'Kalam', Roboto, Helvetica, Arial, sans-serif;
    --font-body: 'Inter', 'Segoe UI', 'Kalam', Roboto, Helvetica, Arial, sans-serif;
    --font-size-h1: 56px;
    --font-size-h2: 40px;
    --font-size-h3: 28px;
    --font-size-body: 24px;
    --font-size-caption: 18px;
    --secondary-text: var(--muted-text);
    --panel-border: var(--border);
    --font-weight-normal: 400;
    --font-weight-medium: 500;
    --font-weight-semibold: 600;
    --font-weight-bold: 700;
    --spacing-gutter-pct: 0.07;
    --spacing-top-pct: 0.15;
    --spacing-bottom-pct: 0.07;
    --spacing-title-y-pct: 0.055;
    --accent-1: #3b82f6;
    --accent-2: #22c55e;
    --accent-3: #f59e0b;
    --accent-4: #ec4899;
    --accent-5: #8b5cf6;
    --accent-6: #06b6d4;
}
:root[data-theme="dark"] {
    --background: #0f172a;
    --panel: #1e293b;
    --primary-text: #f1f5f9;
    --muted-text: #94a3b8;
    --inverse-text: #0f172a;
    --border: #334155;
    --shadow-color: #000000;
    --icon-pad-bg: #1e293b;
    --art-glow: #7dd3fc;
    --art-glow-opacity: 0.18;
    --art-sheen: #ffffff;
    --art-sheen-opacity: 0.18;
    --art-shadow: #000000;
    --art-shadow-opacity: 0.28;
    --art-muted-line: #64748b;
    --art-panel-tint: #1e293b;
    --accent-1: #93c5fd;
    --accent-2: #86efac;
    --accent-3: #fcd34d;
    --accent-4: #f9a8d4;
    --accent-5: #c4b5fd;
    --accent-6: #a5f3fc;
}
:root[data-theme="light"] {
    --background: #f8fafc;
    --panel: #ffffff;
    --primary-text: #0f172a;
    --muted-text: #64748b;
    --inverse-text: #ffffff;
    --border: #e2e8f0;
    --shadow-color: #000000;
    --icon-pad-bg: #1e293b;
    --art-glow: #0891b2;
    --art-glow-opacity: 0.10;
    --art-sheen: #ffffff;
    --art-sheen-opacity: 0.34;
    --art-shadow: #0f172a;
    --art-shadow-opacity: 0.14;
    --art-muted-line: #94a3b8;
    --art-panel-tint: #f1f5f9;
    --accent-1: #3b82f6;
    --accent-2: #22c55e;
    --accent-3: #f59e0b;
    --accent-4: #ec4899;
    --accent-5: #8b5cf6;
    --accent-6: #06b6d4;
}</style>
  <rect x="0" y="0" width="1.92E+3" height="1.08E+3" fill="#252a34" stroke="none" id="programmatic_background"/>
  <line id="HEADER_DECOR" x1="960.0" x2="1080.0" y1="105.0" y2="105.0" stroke="var(--accent-1)" stroke-width="6" stroke-linecap="round"/>
  <defs>
    <pattern id="svg03f02ab3-napkin-hatch" patternUnits="userSpaceOnUse" width="12" height="12">
      <path d="M -3 12 L 12 -3 M 0 15 L 15 0" fill="none" stroke="var(--primary-text)" stroke-width="1" stroke-opacity="0.05"/>
    </pattern>
    <filter id="svg03f02ab3-shadow" x="-30%" y="-30%" width="160%" height="160%">
      <feDropShadow dx="0" dy="3" stdDeviation="6" flood-color="#000000" flood-opacity="0.10"/>
      <feDropShadow dx="0" dy="8" stdDeviation="12" flood-color="#000000" flood-opacity="0.16"/>
    </filter>
    <radialGradient id="svg03f02ab3-universal-edge-vignette" cx="50%" cy="50%" r="72%">
      <stop offset="0%" stop-color="var(--background)" stop-opacity="0"/>
      <stop offset="72%" stop-color="var(--background)" stop-opacity="0.12"/>
      <stop offset="100%" stop-color="var(--primary-text)" stop-opacity="0.08"/>
    </radialGradient>
    <linearGradient id="svg03f02ab3-universal-surface-sheen" x1="0%" y1="0%" x2="100%" y2="100%">
      <stop offset="0%" stop-color="var(--art-sheen)" stop-opacity="var(--art-sheen-opacity)"/>
      <stop offset="46%" stop-color="var(--art-sheen)" stop-opacity="0.035"/>
      <stop offset="100%" stop-color="var(--art-panel-tint)" stop-opacity="0.14"/>
    </linearGradient>
    <radialGradient id="svg03f02ab3-universal-icon-aura" cx="50%" cy="42%" r="64%">
      <stop offset="0%" stop-color="var(--art-glow)" stop-opacity="var(--art-glow-opacity)"/>
      <stop offset="100%" stop-color="var(--background)" stop-opacity="0"/>
    </radialGradient>
    <linearGradient id="svg03f02ab3-card-panel-sheen" x1="0%" y1="0%" x2="100%" y2="100%">
      <stop offset="0%" stop-color="var(--inverse-text)" stop-opacity="0.20"/>
      <stop offset="48%" stop-color="var(--inverse-text)" stop-opacity="0.04"/>
      <stop offset="100%" stop-color="var(--background)" stop-opacity="0.16"/>
    </linearGradient>
    <radialGradient id="svg03f02ab3-card-icon-glow" cx="50%" cy="35%" r="62%">
      <stop offset="0%" stop-color="var(--inverse-text)" stop-opacity="0.22"/>
      <stop offset="100%" stop-color="var(--background)" stop-opacity="0"/>
    </radialGradient>
    <filter id="svg03f02ab3-text-glow" x="-20%" y="-20%" width="140%" height="140%">
      <feDropShadow dx="0" dy="0" stdDeviation="2" flood-color="#000000" flood-opacity="0.4"/>
    </filter>
    <marker id="svg03f02ab3-arrowhead" markerWidth="10" markerHeight="7" refX="9" refY="3.5" orient="auto" markerUnits="strokeWidth">
      <polygon points="0 0, 10 3.5, 0 7" fill="var(--muted-text)" opacity="0.6"/>
    </marker>
  </defs>
  <rect width="100%" height="100%" fill="var(--background)" id="CANVAS_BG"/>
  <rect width="100%" height="100%" fill="url(#svg03f02ab3-napkin-hatch)"/>
  <rect id="UNIVERSAL_EDGE_VIGNETTE" width="100%" height="100%" fill="url(#svg03f02ab3-universal-edge-vignette)" opacity="0.62"/>
  <text id="TITLE" x="960.0" y="59" font-size="54" font-weight="800" fill="#0f172a" text-anchor="middle" style="font-size: 60px; font-family: Inter, Segoe UI, Kalam, Roboto, Helvetica, Arial, sans-serif; font-weight: 700; letter-spacing:-1.2px;" data-final-font-size="60">
    <tspan x="960.0" dy="68.00px">K-pop Album Collectible Components</tspan>
  </text>
  <rect id="TITLE_FRAME" x="134" y="35" width="1652" height="78" fill="none"/>
  <rect x="120" y="150" width="1680" height="830" rx="40" fill="var(--panel)" fill-opacity="0.24" stroke="var(--muted-text)" stroke-width="2" opacity="0.94"/>
  <g id="DIAGRAM_MAIN">
    <g filter="url(#svg03f02ab3-shadow)">
      <rect id="ITEM_1_BG" x="170" y="180" width="480" height="388" rx="28" fill="var(--panel)" fill-opacity="0.98" stroke="var(--accent-1)" stroke-width="3"/>
      <rect x="170" y="180" width="480" height="18" rx="9" fill="var(--accent-1)" fill-opacity="0.55"/>
      <rect x="295" y="216" width="230" height="30" rx="15" fill="var(--accent-1)" fill-opacity="0.10"/>
      <circle id="ITEM_1_PAD" cx="410" cy="262" r="54" fill="var(--icon-pad-bg)" opacity="0.95" fill-opacity="0.9" stroke-width="2" stroke="var(--primary-text)"/>
      <circle id="ITEM_1_PAD_INNER" cx="410" cy="262" r="42.12" fill="var(--accent-2)" fill-opacity="0.22"/>
      <circle cx="410" cy="262" r="42" fill="none" stroke="var(--accent-1)" stroke-width="3" stroke-dasharray="6 4"/>
      <g id="ITEM_1_ICON" transform="translate(373, 225)" data-icon-size="74">
        <g transform="translate(-7.928000000000004,-8.279000000000007) scale(0.17550000000000002)" vector-effect="non-scaling-stroke" fill="#f1f5f9" fill-opacity="1.0" stroke="none">
          <path fill="#f1f5f9" d="m386.688 487.75l-119.236-55.423c-7.898-3.673-11.334-13.065-7.66-20.976l84.374-181.523c3.667-7.904 13.07-11.334 20.963-7.667l119.24 55.434c7.9 3.673 11.33 13.065 7.656 20.964l-84.37 181.524c-3.678 7.904-13.076 11.334-20.968 7.667zM98.95 467.945L19.79 284.09c-3.448-8.007.255-17.302 8.25-20.744l39.196-16.872l48.975 184.044c4.694 17.588 22.755 28.078 40.36 23.39l39.032-10.386l-75.907 32.686c-8.007 3.443-17.296-.255-20.744-8.262zm33.89-41.86L81.362 232.638c-2.24-8.42 2.78-17.078 11.19-19.312l34.033-9.052l-4.098 30.465c-2.422 18.036 10.224 34.652 28.285 37.087l79.828 10.758l-32.497 109.467c-3.345 11.28-.37 22.948 6.866 31.18l-52.82 14.05c-8.42 2.24-17.07-2.77-19.31-11.196zm108.428-4.76l-16.02-4.76c-8.36-2.49-13.12-11.267-10.644-19.627l56.97-191.9c2.484-8.36 11.28-13.12 19.622-10.65l49.073 14.583l.008-.005l.12.044l-.133-.034a32.8 32.8 0 0 0-11.705 13.605l-84.38 181.53a33 33 0 0 0-2.915 17.218zm-5.707-155.43l-82.486-11.117c-8.633-1.166-14.704-9.12-13.538-17.758l26.73-198.39c1.16-8.633 9.125-14.698 17.74-13.538l130.327 17.563c8.627 1.166 14.692 9.125 13.532 17.752L311.42 182.46l-15.33-4.552c-17.467-5.197-35.826 4.784-41.004 22.232zm-5.19-31.46c4.67-3.055 7.474-7.438 8.42-13.145c.936-5.633-.357-10.617-3.866-14.945c-3.51-4.414-8.39-7.14-14.656-8.178c-6.344-1.057-11.93-.073-16.75 2.956c-4.826 3.03-7.692 7.316-8.615 12.87c-.898 5.386.425 10.42 3.97 15.082c3.565 4.504 8.525 7.285 14.863 8.34q9.524 1.584 16.634-2.98m25.978-81.243c4.693-2.726 8.888-5.434 12.598-8.117c3.703-2.684 6.915-5.586 9.635-8.725a45 45 0 0 0 6.733-10.307c1.76-3.74 3.048-8.032 3.85-12.865c1.262-7.62 1.02-14.358-.735-20.234c-1.75-5.87-4.693-10.94-8.833-15.22c-4.135-4.27-9.24-7.753-15.318-10.43c-6.07-2.684-12.804-4.633-20.174-5.86c-7.692-1.28-15.3-1.602-22.815-.977c-7.516.614-14.63 2.247-21.346 4.88l-5.95 35.802c6.813-4.25 13.77-7.104 20.855-8.567q10.634-2.214 19.913-.668c21.467 4.092 19.44 24.898 8.76 34.03c-5.652 4.473-11.334 8.802-15.942 11.345c-10.48 5.914-27.69 23.125-22.542 45.145l31.284 5.202c-7.11-17.757 11.663-29.462 20.028-34.434z" vector-effect="non-scaling-stroke" stroke="none"/>
        </g>
      </g>
      <text id="ITEM_1_HEAD" x="410.0" y="328.0" font-weight="800" font-size="28" fill="var(--primary-text)" text-anchor="middle" data-bg-id="ITEM_1_BG" fill-opacity="1.0" style="font-size: 30px; font-family: Inter, Segoe UI, Kalam, Roboto, Helvetica, Arial, sans-serif; font-weight: 700; letter-spacing:-0.4px;" data-final-font-size="30">
        <tspan x="410.0" dy="42.97px">Random Photocards</tspan>
      </text>
      <rect id="ITEM_1_HEAD_FRAME" x="230" y="328" width="360" height="56" fill="none"/>
      <text id="ITEM_1_BODY" x="410.0" y="378.0" font-size="18" fill="var(--primary-text)" text-anchor="middle" data-bg-id="ITEM_1_BG" style="font-size: 26px; font-family: Inter, Segoe UI, Kalam, Roboto, Helvetica, Arial, sans-serif; font-weight: 400;" data-final-font-size="26">
        <tspan x="410.0" dy="47.53px">Individual member cards with varying</tspan>
        <tspan x="410.0" dy="29.90px">degrees of rarity</tspan>
      </text>
      <rect id="ITEM_1_BODY_FRAME" x="195" y="378" width="430" height="156" fill="none"/>
    </g>
    <g filter="url(#svg03f02ab3-shadow)">
      <rect id="ITEM_2_BG" x="720" y="180" width="480" height="388" rx="28" fill="var(--panel)" fill-opacity="0.98" stroke="var(--accent-2)" stroke-width="3"/>
      <rect x="720" y="180" width="480" height="18" rx="9" fill="var(--accent-2)" fill-opacity="0.55"/>
      <rect x="845" y="216" width="230" height="30" rx="15" fill="var(--accent-2)" fill-opacity="0.10"/>
      <circle id="ITEM_2_PAD" cx="960" cy="262" r="54" fill="var(--icon-pad-bg)" opacity="0.95" fill-opacity="0.9" stroke-width="2" stroke="var(--primary-text)"/>
      <circle id="ITEM_2_PAD_INNER" cx="960" cy="262" r="42.12" fill="var(--accent-3)" fill-opacity="0.22"/>
      <circle cx="960" cy="262" r="42" fill="none" stroke="var(--accent-2)" stroke-width="3" stroke-dasharray="6 4"/>
      <g id="ITEM_2_ICON" transform="translate(923, 225)" data-icon-size="74">
        <g transform="translate(-11.137142857142862,-11.137142857142862) scale(3.008571428571429)" vector-effect="non-scaling-stroke" fill="#f1f5f9" fill-opacity="1.0" stroke="none">
          <path fill="#f1f5f9" d="M20.885 19.471a5.96 5.96 0 0 0 0-6.942L23 10.414l1.293 1.293a1 1 0 0 0 1.414 0l4-4a1 1 0 0 0 0-1.414l-4-4a1 1 0 0 0-1.414 0l-4 4a1 1 0 0 0 0 1.414L21.586 9l-2.115 2.115a5.96 5.96 0 0 0-6.942 0L10 8.585V2H2v8h6.586l2.529 2.529a5.96 5.96 0 0 0 0 6.942L9 21.586l-1.293-1.293a1 1 0 0 0-1.414 0l-4 4a1 1 0 0 0 0 1.414l4 4a1 1 0 0 0 1.414 0l4-4a1 1 0 0 0 0-1.414L10.414 23l2.115-2.115a5.96 5.96 0 0 0 6.942 0L22 23.415V30h8v-8h-6.586ZM25 4.414L27.586 7L25 9.586L22.414 7ZM7 27.586L4.414 25L7 22.414L9.586 25ZM8 8H4V4h4Zm4 8a4 4 0 1 1 4 4a4.005 4.005 0 0 1-4-4m12 8h4v4h-4Z" vector-effect="non-scaling-stroke" stroke="none"/>
        </g>
      </g>
      <text id="ITEM_2_HEAD" x="960.0" y="328.0" font-weight="800" font-size="28" fill="var(--primary-text)" text-anchor="middle" data-bg-id="ITEM_2_BG" fill-opacity="1.0" style="font-size: 30px; font-family: Inter, Segoe UI, Kalam, Roboto, Helvetica, Arial, sans-serif; font-weight: 700; letter-spacing:-0.4px;" data-final-font-size="30">
        <tspan x="960.0" dy="42.97px">Concept Photobooks</tspan>
      </text>
      <rect id="ITEM_2_HEAD_FRAME" x="780" y="328" width="360" height="56" fill="none"/>
      <text id="ITEM_2_BODY" x="960.0" y="378.0" font-size="18" fill="var(--primary-text)" text-anchor="middle" data-bg-id="ITEM_2_BG" style="font-size: 26px; font-family: Inter, Segoe UI, Kalam, Roboto, Helvetica, Arial, sans-serif; font-weight: 400;" data-final-font-size="26">
        <tspan x="960.0" dy="47.53px">High-quality books featuring exclusive</tspan>
        <tspan x="960.0" dy="29.90px">artist concept photos</tspan>
      </text>
      <rect id="ITEM_2_BODY_FRAME" x="745" y="378" width="430" height="156" fill="none"/>
    </g>
    <g filter="url(#svg03f02ab3-shadow)">
      <rect id="ITEM_3_BG" x="1270" y="180" width="480" height="388" rx="28" fill="var(--panel)" fill-opacity="0.98" stroke="var(--accent-3)" stroke-width="3"/>
      <rect x="1270" y="180" width="480" height="18" rx="9" fill="var(--accent-3)" fill-opacity="0.55"/>
      <rect x="1395" y="216" width="230" height="30" rx="15" fill="var(--accent-3)" fill-opacity="0.10"/>
      <circle id="ITEM_3_PAD" cx="1510" cy="262" r="54" fill="var(--icon-pad-bg)" opacity="0.95" fill-opacity="0.9" stroke-width="2" stroke="var(--primary-text)"/>
      <circle id="ITEM_3_PAD_INNER" cx="1510" cy="262" r="42.12" fill="var(--accent-4)" fill-opacity="0.22"/>
      <circle cx="1510" cy="262" r="42" fill="none" stroke="var(--accent-3)" stroke-width="3" stroke-dasharray="6 4"/>
      <g id="ITEM_3_ICON" transform="translate(1473, 225)" data-icon-size="74">
        <g transform="translate(-10.761071428571434,-11.137142857142862) scale(3.008571428571429)">
          <path d="M15.35 2.1425C15.67 1.9525 16.06 1.9525 16.37 2.1425L27.29 8.7825C27.55 8.9425 27.71 9.2325 27.71 9.5325L15.86 17.5L4 9.63243V9.5325C4 9.2325 4.16 8.9425 4.42 8.7925L15.35 2.1425Z" fill="#F3C07B"/>
          <path d="M15.856 16.2463L27.216 9.34633C27.2658 9.31663 27.3227 9.30067 27.3807 9.30007C27.4387 9.29946 27.4958 9.31425 27.5462 9.34291C27.5966 9.37158 27.6385 9.41307 27.6676 9.46321C27.6968 9.51335 27.7121 9.57032 27.7121 9.62831V21.9683C27.7122 22.2655 27.6359 22.5577 27.4905 22.8169C27.3452 23.0761 27.1356 23.2934 26.882 23.4483L16.2421 29.9083C16.215 29.9232 16.1855 29.9334 16.155 29.9384C16.1281 29.9464 16.1001 29.9501 16.072 29.9494C15.9585 29.9812 15.8398 29.9903 15.7227 29.9761C15.6056 29.9618 15.4926 29.9245 15.39 29.8664H15.396L13 19L15.856 16.2463Z" fill="#FFCE7C"/>
          <path d="M15.86 29.6224V16.2524L4.51 9.35243C4.28 9.21243 4 9.37243 4 9.63243V21.9724C4 22.5824 4.32 23.1424 4.83 23.4524L15.4 29.8724C15.6 30.0024 15.86 29.8524 15.86 29.6224Z" fill="#E19747"/>
          <path d="M14.5 26.7824V24.8224C14.5 24.5924 14.38 24.3824 14.19 24.2624L11.39 22.5724C11.2 22.4624 10.96 22.5924 10.96 22.8124V24.7724C10.96 25.0024 11.08 25.2124 11.27 25.3324L14.07 27.0224C14.26 27.1324 14.5 27.0024 14.5 26.7824Z" fill="#D3D3D3"/>
          <path d="M11.76 16.5525V13.7625V11.9926L8.48001 11.7725V14.9325C8.48001 15.0325 8.53001 15.1325 8.62001 15.1925L11.3 16.8225C11.5 16.9325 11.76 16.7925 11.76 16.5525Z" fill="#8C5543"/>
          <path d="M20.34 4.5625L8.48001 11.7725L11.76 13.7725L23.62 6.5725L20.34 4.5625Z" fill="#A56953"/>
        </g>
      </g>
      <text id="ITEM_3_HEAD" x="1510.0" y="328.0" font-weight="800" font-size="28" fill="var(--primary-text)" text-anchor="middle" data-bg-id="ITEM_3_BG" fill-opacity="1.0" style="font-size: 30px; font-family: Inter, Segoe UI, Kalam, Roboto, Helvetica, Arial, sans-serif; font-weight: 700; letter-spacing:-0.4px;" data-final-font-size="30">
        <tspan x="1510.0" dy="42.97px">Retailer Bonuses</tspan>
      </text>
      <rect id="ITEM_3_HEAD_FRAME" x="1330" y="328" width="360" height="56" fill="none"/>
      <text id="ITEM_3_BODY" x="1510.0" y="378.0" font-size="18" fill="var(--primary-text)" text-anchor="middle" data-bg-id="ITEM_3_BG" style="font-size: 26px; font-family: Inter, Segoe UI, Kalam, Roboto, Helvetica, Arial, sans-serif; font-weight: 400;" data-final-font-size="26">
        <tspan x="1510.0" dy="47.53px">Exclusive items provided by specific</tspan>
        <tspan x="1510.0" dy="29.90px">store pre-orders</tspan>
      </text>
      <rect id="ITEM_3_BODY_FRAME" x="1295" y="378" width="430" height="156" fill="none"/>
    </g>
    <g filter="url(#svg03f02ab3-shadow)">
      <rect id="ITEM_4_BG" x="260" y="580" width="660" height="370" rx="30" fill="var(--panel)" fill-opacity="0.98" stroke="var(--accent-4)" stroke-width="3"/>
      <rect x="260" y="590" width="660" height="18" rx="9" fill="var(--accent-4)" fill-opacity="0.55"/>
      <rect x="430" y="628" width="320" height="32" rx="16" fill="var(--accent-4)" fill-opacity="0.10"/>
      <circle id="ITEM_4_PAD" cx="590" cy="684" r="54" fill="var(--icon-pad-bg)" opacity="0.95" fill-opacity="0.9" stroke-width="2" stroke="var(--primary-text)"/>
      <circle id="ITEM_4_PAD_INNER" cx="590" cy="684" r="42.12" fill="var(--accent-5)" fill-opacity="0.22"/>
      <circle cx="590" cy="684" r="42" fill="none" stroke="var(--accent-4)" stroke-width="3" stroke-dasharray="6 4"/>
      <g id="ITEM_4_ICON" transform="translate(551, 645)" data-icon-size="78">
        <g transform="translate(-5.975593220338986,-6.689491525423733) scale(0.17847457627118646)" vector-effect="non-scaling-stroke" fill="#f1f5f9" fill-opacity="1.0" stroke="none">
          <path fill="#f1f5f9" d="M459.9 23.48C327 43.49 189.7 52.14 45.6 42.67C55.13 191.1 63.8 339.8 61.95 490.2c129.65-8.9 259.25-18 393.15-4.1c-5.7-154.5-13.9-309 4.8-462.62M251.1 81.39c46.4.22 93 19.81 126.7 57.71c61.6 69.1 57.7 178.5-9.6 238.4c-3.2 2.9-6.5 5.5-9.8 8.1c-14.6 26-14.2 57.1-39 61.7c-12.9 2.4-26-10.2-37.2-22.7c-4.8 8.6-9.7 14.6-15.8 14.4c-5.7-.2-9.1-10.1-11.4-21.5c-44.5-1.8-88.6-21.3-120.8-57.5c-61.61-69.1-57.77-178.5 9.6-238.5c30.5-27.15 68.8-40.3 107.3-40.11m4.3 36.31c-6.8.1-13.6.7-20.4 1.9c-1.8 9.6-4.3 18.5-9 18.7c-4.9.2-8.7-5.2-12.5-12.5c-13.6 5.2-26.5 13.1-38.3 23.6c-52.3 46.6-63.3 127.4-14.1 182.6c49.1 55.2 130.8 61.2 183.1 14.6c52.3-46.5 55.9-128.4 6.7-183.6c-26.9-30.2-61.2-45.3-95.5-45.3m8.5 44.2c17.9.2 35.3 6.1 49.3 18.4c34.3 30.3 33.8 88.2 3 123c-30.8 34.9-84.1 39.6-118.4 9.2c-34.3-30.3-36.2-83.8-5.3-118.6c18.3-20.7 45.3-32.3 71.4-32m-10.4 37.7c-14.1-.1-28.2 5.2-38 16.2c-18.5 20.9-12.9 52.8 6.2 69.7s53.5 14.8 72-6.1c18.4-20.8 12.4-50.8-6.7-67.7c-9-8-21.2-12.1-33.5-12.1m-2.6 33.6a21.02 19.18 0 0 1 21 19.2a21.02 19.18 0 0 1-21 19.2a21.02 19.18 0 0 1-21-19.2a21.02 19.18 0 0 1 21-19.2" vector-effect="non-scaling-stroke" stroke="none"/>
        </g>
      </g>
      <text id="ITEM_4_HEAD" x="590.0" y="754.0" font-weight="800" font-size="30" fill="var(--primary-text)" text-anchor="middle" data-bg-id="ITEM_4_BG" fill-opacity="1.0" style="font-size: 30px; font-family: Inter, Segoe UI, Kalam, Roboto, Helvetica, Arial, sans-serif; font-weight: 700; letter-spacing:-0.4px;" data-final-font-size="30">
        <tspan x="590.0" dy="44.21px">Promotional Posters</tspan>
      </text>
      <rect id="ITEM_4_HEAD_FRAME" x="380" y="754" width="420" height="58" fill="none"/>
      <text id="ITEM_4_BODY" x="595.0" y="798.0" font-size="18" fill="var(--primary-text)" text-anchor="middle" data-bg-id="ITEM_4_BG" style="font-size: 26px; font-family: Inter, Segoe UI, Kalam, Roboto, Helvetica, Arial, sans-serif; font-weight: 400;" data-final-font-size="26">
        <tspan x="595.0" dy="45.54px">Large scale prints for fan display</tspan>
        <tspan x="595.0" dy="29.90px">and decoration</tspan>
      </text>
      <rect id="ITEM_4_BODY_FRAME" x="360" y="798" width="470" height="148" fill="none"/>
    </g>
    <g filter="url(#svg03f02ab3-shadow)">
      <rect id="ITEM_5_BG" x="1000" y="580" width="660" height="370" rx="30" fill="var(--panel)" fill-opacity="0.98" stroke="var(--accent-5)" stroke-width="3"/>
      <rect x="1000" y="590" width="660" height="18" rx="9" fill="var(--accent-5)" fill-opacity="0.55"/>
      <rect x="1170" y="628" width="320" height="32" rx="16" fill="var(--accent-5)" fill-opacity="0.10"/>
      <circle id="ITEM_5_PAD" cx="1330" cy="684" r="54" fill="var(--icon-pad-bg)" opacity="0.95" fill-opacity="0.9" stroke-width="2" stroke="var(--primary-text)"/>
      <circle id="ITEM_5_PAD_INNER" cx="1330" cy="684" r="42.12" fill="var(--accent-6)" fill-opacity="0.22"/>
      <circle cx="1330" cy="684" r="42" fill="none" stroke="var(--accent-5)" stroke-width="3" stroke-dasharray="6 4"/>
      <g id="ITEM_5_ICON" transform="translate(1291, 645)" data-icon-size="78">
        <g transform="translate(-17.160000000000007,-17.160000000000007) scale(4.680000000000001)" vector-effect="non-scaling-stroke" stroke-width="2.65" stroke-linecap="round" stroke-linejoin="round" stroke-opacity="1.0">
          <path d="M6 4h12a2 2 0 0 1 2 2v7h-5a2 2 0 0 0 -2 2v5h-7a2 2 0 0 1 -2 -2v-12a2 2 0 0 1 2 -2z" vector-effect="non-scaling-stroke" fill="none" stroke="#f1f5f9"/>
          <path d="M20 13v.172a2 2 0 0 1 -.586 1.414l-4.828 4.828a2 2 0 0 1 -1.414 .586h-.172" vector-effect="non-scaling-stroke" fill="none" stroke="#f1f5f9"/>
        </g>
      </g>
      <text id="ITEM_5_HEAD" x="1330.0" y="754.0" font-weight="800" font-size="30" fill="var(--primary-text)" text-anchor="middle" data-bg-id="ITEM_5_BG" fill-opacity="1.0" style="font-size: 30px; font-family: Inter, Segoe UI, Kalam, Roboto, Helvetica, Arial, sans-serif; font-weight: 700; letter-spacing:-0.4px;" data-final-font-size="30">
        <tspan x="1330.0" dy="44.21px">Sticker Sheets</tspan>
      </text>
      <rect id="ITEM_5_HEAD_FRAME" x="1120" y="754" width="420" height="58" fill="none"/>
      <text id="ITEM_5_BODY" x="1335.0" y="798.0" font-size="18" fill="var(--primary-text)" text-anchor="middle" data-bg-id="ITEM_5_BG" style="font-size: 26px; font-family: Inter, Segoe UI, Kalam, Roboto, Helvetica, Arial, sans-serif; font-weight: 400;" data-final-font-size="26">
        <tspan x="1335.0" dy="45.54px">Decorative adhesive items included</tspan>
        <tspan x="1335.0" dy="29.90px">in album packaging</tspan>
      </text>
      <rect id="ITEM_5_BODY_FRAME" x="1100" y="798" width="470" height="148" fill="none"/>
    </g>
  </g>
</svg>
