<?xml version='1.0' encoding='utf-8'?>
<svg xmlns="http://www.w3.org/2000/svg" width="1920" height="1080" viewBox="0 0 1920 1080" data-theme="dark">
  <style>
        @font-face {
            font-family: 'Inter';
            src: url('assets/fonts/Inter-Regular.ttf') format('truetype');
            font-weight: 400;
            font-style: normal;
            font-display: swap;
        }
        @font-face {
            font-family: 'Inter';
            src: url('assets/fonts/Inter-Bold.ttf') format('truetype');
            font-weight: 600;
            font-style: normal;
            font-display: swap;
        }
        @font-face {
            font-family: 'Inter';
            src: url('assets/fonts/Inter-Bold.ttf') format('truetype');
            font-weight: 800;
            font-style: normal;
            font-display: swap;
        }
        
:root {
    --background: #0f172a;
    --panel: #1e293b;
    --primary-text: #f1f5f9;
    --muted-text: #94a3b8;
    --inverse-text: #0f172a;
    --border: #334155;
    --shadow-color: #000000;
    --icon-pad-bg: #1e293b;
    --art-glow: #7dd3fc;
    --art-glow-opacity: 0.18;
    --art-sheen: #ffffff;
    --art-sheen-opacity: 0.18;
    --art-shadow: #000000;
    --art-shadow-opacity: 0.28;
    --art-muted-line: #64748b;
    --art-panel-tint: #1e293b;
    --font-family: 'Inter', 'Segoe UI', 'Kalam', Roboto, Helvetica, Arial, sans-serif;
    --radius-xl: 16px;
    --font-family-headline: 'Inter', 'Segoe UI', 'Kalam', Roboto, Helvetica, Arial, sans-serif;
    --font-family-body: 'Inter', 'Segoe UI', 'Kalam', Roboto, Helvetica, Arial, sans-serif;
    --font-heading: 'Inter', 'Segoe UI', 'Kalam', Roboto, Helvetica, Arial, sans-serif;
    --font-body: 'Inter', 'Segoe UI', 'Kalam', Roboto, Helvetica, Arial, sans-serif;
    --font-size-h1: 56px;
    --font-size-h2: 40px;
    --font-size-h3: 28px;
    --font-size-body: 24px;
    --font-size-caption: 18px;
    --secondary-text: var(--muted-text);
    --panel-border: var(--border);
    --font-weight-normal: 400;
    --font-weight-medium: 500;
    --font-weight-semibold: 600;
    --font-weight-bold: 700;
    --spacing-gutter-pct: 0.07;
    --spacing-top-pct: 0.15;
    --spacing-bottom-pct: 0.07;
    --spacing-title-y-pct: 0.055;
    --accent-1: #22d3ee;
    --accent-2: #f472b6;
    --accent-3: #facc15;
    --accent-4: #a3e635;
    --accent-5: #fb923c;
    --accent-6: #c084fc;
}
:root[data-theme="dark"] {
    --background: #0f172a;
    --panel: #1e293b;
    --primary-text: #f1f5f9;
    --muted-text: #94a3b8;
    --inverse-text: #0f172a;
    --border: #334155;
    --shadow-color: #000000;
    --icon-pad-bg: #1e293b;
    --art-glow: #7dd3fc;
    --art-glow-opacity: 0.18;
    --art-sheen: #ffffff;
    --art-sheen-opacity: 0.18;
    --art-shadow: #000000;
    --art-shadow-opacity: 0.28;
    --art-muted-line: #64748b;
    --art-panel-tint: #1e293b;
    --accent-1: #22d3ee;
    --accent-2: #f472b6;
    --accent-3: #facc15;
    --accent-4: #a3e635;
    --accent-5: #fb923c;
    --accent-6: #c084fc;
}
:root[data-theme="light"] {
    --background: #f8fafc;
    --panel: #ffffff;
    --primary-text: #0f172a;
    --muted-text: #64748b;
    --inverse-text: #ffffff;
    --border: #e2e8f0;
    --shadow-color: #000000;
    --icon-pad-bg: #1e293b;
    --art-glow: #0891b2;
    --art-glow-opacity: 0.10;
    --art-sheen: #ffffff;
    --art-sheen-opacity: 0.34;
    --art-shadow: #0f172a;
    --art-shadow-opacity: 0.14;
    --art-muted-line: #94a3b8;
    --art-panel-tint: #f1f5f9;
    --accent-1: #0891b2;
    --accent-2: #db2777;
    --accent-3: #ca8a04;
    --accent-4: #65a30d;
    --accent-5: #ea580c;
    --accent-6: #9333ea;
}</style>
  <rect x="0" y="0" width="1.92E+3" height="1.08E+3" fill="#252a34" stroke="none" id="programmatic_background"/>
  <line id="HEADER_DECOR" x1="960.0" x2="1080.0" y1="115.0" y2="115.0" stroke="var(--accent-1)" stroke-width="6" stroke-linecap="round"/>
  <defs>
    <pattern id="svgd3ef96e1-napkin-hatch" patternUnits="userSpaceOnUse" width="12" height="12">
      <path d="M -3 12 L 12 -3 M 0 15 L 15 0" fill="none" stroke="var(--primary-text)" stroke-width="1" stroke-opacity="0.05"/>
    </pattern>
    <filter id="svgd3ef96e1-shadow" x="-30%" y="-30%" width="160%" height="160%">
      <feDropShadow dx="0" dy="2" stdDeviation="3" flood-color="#000000" flood-opacity="0.08"/>
      <feDropShadow dx="0" dy="6" stdDeviation="10" flood-color="#000000" flood-opacity="0.12"/>
    </filter>
    <radialGradient id="svgd3ef96e1-universal-edge-vignette" cx="50%" cy="50%" r="72%">
      <stop offset="0%" stop-color="var(--background)" stop-opacity="0"/>
      <stop offset="72%" stop-color="var(--background)" stop-opacity="0.12"/>
      <stop offset="100%" stop-color="var(--primary-text)" stop-opacity="0.08"/>
    </radialGradient>
    <linearGradient id="svgd3ef96e1-universal-surface-sheen" x1="0%" y1="0%" x2="100%" y2="100%">
      <stop offset="0%" stop-color="var(--art-sheen)" stop-opacity="var(--art-sheen-opacity)"/>
      <stop offset="46%" stop-color="var(--art-sheen)" stop-opacity="0.035"/>
      <stop offset="100%" stop-color="var(--art-panel-tint)" stop-opacity="0.14"/>
    </linearGradient>
    <radialGradient id="svgd3ef96e1-universal-icon-aura" cx="50%" cy="42%" r="64%">
      <stop offset="0%" stop-color="var(--art-glow)" stop-opacity="var(--art-glow-opacity)"/>
      <stop offset="100%" stop-color="var(--background)" stop-opacity="0"/>
    </radialGradient>
    <linearGradient id="svgd3ef96e1-taxonomy-node-sheen" x1="0%" y1="0%" x2="100%" y2="100%">
      <stop offset="0%" stop-color="var(--inverse-text)" stop-opacity="0.18"/>
      <stop offset="100%" stop-color="var(--background)" stop-opacity="0.14"/>
    </linearGradient>
    <filter id="svgd3ef96e1-text-glow" x="-20%" y="-20%" width="140%" height="140%">
      <feDropShadow dx="0" dy="0" stdDeviation="2" flood-color="#000000" flood-opacity="0.4"/>
    </filter>
    <marker id="svgd3ef96e1-arrowhead" markerWidth="10" markerHeight="7" refX="9" refY="3.5" orient="auto" markerUnits="strokeWidth">
      <polygon points="0 0, 10 3.5, 0 7" fill="var(--muted-text)" opacity="0.6"/>
    </marker>
  </defs>
  <rect width="100%" height="100%" fill="var(--background)" id="CANVAS_BG"/>
  <rect width="100%" height="100%" fill="url(#svgd3ef96e1-napkin-hatch)"/>
  <rect id="UNIVERSAL_EDGE_VIGNETTE" width="100%" height="100%" fill="url(#svgd3ef96e1-universal-edge-vignette)" opacity="0.62"/>
  <text id="TITLE" x="960.0" y="59" text-anchor="middle" font-weight="800" font-size="56" fill="#f1f5f9" style="font-size: 60px; font-family: Inter, Segoe UI, Kalam, Roboto, Helvetica, Arial, sans-serif; font-weight: 700; letter-spacing:-1.2px;" data-final-font-size="60">
    <tspan x="960.0" dy="68.00px">Spotify Global Reach Statistics</tspan>
  </text>
  <rect id="TITLE_FRAME" x="134" y="39" width="1652" height="103" fill="none"/>
  <g id="DIAGRAM_SCALER" transform="translate(50, 20) scale(0.95)">
    <!-- Parent Node (ITEM_1) - Top Box -->
    <g transform="translate(960, 235)">
      <rect x="-310" y="-75" width="620" height="150" rx="18" fill="var(--panel)" stroke="var(--accent-1)" stroke-width="6" filter="url(#svgd3ef96e1-shadow)"/>
      <circle id="ITEM_1_PAD" cx="-150" cy="0" r="55" fill="var(--icon-pad-bg)" stroke="var(--primary-text)" opacity="0.9" fill-opacity="0.9" stroke-width="2"/>
      <circle id="ITEM_1_PAD_INNER" cx="-150" cy="0" r="42.90" fill="var(--accent-4)" fill-opacity="0.22"/>
      <circle cx="-150" cy="0" r="44" fill="none" stroke="var(--accent-1)" stroke-width="3" stroke-dasharray="6 4"/>
      <g id="ITEM_1_ICON" transform="translate(-192, -42)" data-icon-size="84" stroke-dasharray="6 4">
        <g transform="translate(-4.535593220338981,-4.535593220338981) scale(3.877966101694915)" vector-effect="non-scaling-stroke" stroke-width="2.72" stroke-linecap="round" stroke-linejoin="round" stroke-opacity="1.0">
          <circle cx="12" cy="12" r="10" vector-effect="non-scaling-stroke" fill="none" stroke="#f1f5f9"/>
          <path d="M12 2a14.5 14.5 0 0 0 0 20 14.5 14.5 0 0 0 0-20" vector-effect="non-scaling-stroke" fill="none" stroke="#f1f5f9"/>
          <path d="M2 12h20" vector-effect="non-scaling-stroke" fill="none" stroke="#f1f5f9"/>
        </g>
      </g>
      <rect id="ITEM_1_TEXT_BG" x="-34.0" y="-66.0" width="352.0" height="212.0" rx="22" fill="var(--panel)" fill-opacity="0.94" stroke="none" stroke-opacity="0" stroke-width="1.5"/>
      <text id="ITEM_1_HEAD" data-bg-id="ITEM_1_TEXT_BG" x="144.0" y="-50.0" text-anchor="middle" font-weight="bold" font-size="28" fill="var(--accent-4)" fill-opacity="1.0" stroke="none" style="font-size: 30px; font-family: Inter, Segoe UI, Kalam, Roboto, Helvetica, Arial, sans-serif; font-weight: 700; letter-spacing:-0.4px;" data-final-font-size="30">
        <tspan x="144.0" dy="35.13px">External Listening</tspan>
      </text>
      <rect id="ITEM_1_HEAD_FRAME" x="-12" y="-50" width="312" height="48" fill="none"/>
      <text id="ITEM_1_BODY" data-bg-id="ITEM_1_TEXT_BG" x="144.0" y="14.0" text-anchor="middle" font-size="21" fill="var(--primary-text)" opacity="0.9" style="font-size: 26px; font-family: Inter, Segoe UI, Kalam, Roboto, Helvetica, Arial, sans-serif; font-weight: 400;" data-final-font-size="26">
        <tspan x="144.0" dy="30.70px">More than half of</tspan>
        <tspan x="144.0" dy="29.90px">amapiano streams occur</tspan>
        <tspan x="144.0" dy="29.90px">outside South Africa</tspan>
      </text>
      <rect id="ITEM_1_BODY_FRAME" x="8" y="14" width="272" height="116" fill="none"/>
    </g>
    <!-- Vertical connector from top box -->
    <path d="M 960 310 L 960 400" stroke="var(--muted-text)" stroke-width="6"/>
    <!-- Horizontal connector bar -->
    <path d="M 320 400 L 1600 400" stroke="var(--muted-text)" stroke-width="6"/>
    <!-- Vertical connectors to children -->
    <line x1="320" y1="400" x2="320" y2="475" stroke="var(--muted-text)" stroke-width="6"/>
    <line x1="960" y1="400" x2="960" y2="475" stroke="var(--muted-text)" stroke-width="6"/>
    <line x1="1600" y1="400" x2="1600" y2="475" stroke="var(--muted-text)" stroke-width="6"/>
    <!-- Child Node 1 (ITEM_2) -->
    <g transform="translate(320, 545)">
      <circle id="ITEM_2_PAD" cx="0" cy="0" r="70" fill="var(--icon-pad-bg)" stroke="var(--primary-text)" opacity="0.9" fill-opacity="0.9" stroke-width="2"/>
      <circle id="ITEM_2_PAD_INNER" cx="0" cy="0" r="54.60" fill="var(--accent-5)" fill-opacity="0.22"/>
      <circle cx="0" cy="0" r="56" fill="none" stroke="var(--accent-2)" stroke-width="3" stroke-dasharray="6 4" filter="url(#svgd3ef96e1-shadow)"/>
      <g id="ITEM_2_ICON" transform="translate(-42, -42)" data-icon-size="84" stroke-dasharray="6 4">
        <g transform="translate(-17.227118644067797,-17.2271186440678) scale(4.935593220338983)" vector-effect="non-scaling-stroke" stroke-width="2.72" stroke-linecap="round" stroke-linejoin="round" stroke-opacity="1.0">
          <rect width="20" height="12" x="2" y="6" rx="2" vector-effect="non-scaling-stroke" fill="none" stroke="#f1f5f9"/>
          <circle cx="12" cy="12" r="2" vector-effect="non-scaling-stroke" fill="none" stroke="#f1f5f9"/>
          <path d="M6 12h.01M18 12h.01" vector-effect="non-scaling-stroke" fill="none" stroke="#f1f5f9"/>
        </g>
      </g>
      <g transform="translate(0, 100)">
        <rect x="-200" y="-15" width="400" height="230" rx="16" fill="var(--accent-5)" fill-opacity="0.4" stroke="var(--accent-2)" id="ITEM_2_BG" stroke-width="3"/>
        <rect x="-190" y="-5" width="380" height="210" rx="14" fill="url(#svgd3ef96e1-taxonomy-node-sheen)" opacity="0.85"/>
        <rect id="ITEM_2_TEXT_BG" x="-208.0" y="-9.0" width="416.0" height="227.0" rx="22" fill="var(--panel)" fill-opacity="0.94" stroke="none" stroke-opacity="0" stroke-width="1.5"/>
        <text id="ITEM_2_HEAD" text-anchor="middle" font-weight="bold" font-size="28" fill="var(--primary-text)" x="0.0" y="7.0" data-bg-id="ITEM_2_BG" fill-opacity="1.0" stroke="none" style="font-size: 30px; font-family: Inter, Segoe UI, Kalam, Roboto, Helvetica, Arial, sans-serif; font-weight: 700; letter-spacing:-0.4px;" data-final-font-size="30">
          <tspan x="0.0" dy="35.13px">Royalty Distribution</tspan>
        </text>
        <rect id="ITEM_2_HEAD_FRAME" x="-190" y="7" width="380" height="48" fill="none"/>
        <text id="ITEM_2_BODY" text-anchor="middle" font-size="21" fill="var(--primary-text)" x="0.0" y="62.0" data-bg-id="ITEM_2_TEXT_BG" opacity="0.9" style="font-size: 26px; font-family: Inter, Segoe UI, Kalam, Roboto, Helvetica, Arial, sans-serif; font-weight: 400;" data-final-font-size="26">
          <tspan x="0.0" dy="42.44px">Nearly 74% of South African</tspan>
          <tspan x="0.0" dy="29.90px">royalties come from abroad</tspan>
        </text>
        <rect id="ITEM_2_BODY_FRAME" x="-190" y="62" width="380" height="140" fill="none"/>
      </g>
    </g>
    <!-- Child Node 2 (ITEM_3) -->
    <g transform="translate(960, 545)">
      <circle id="ITEM_3_PAD" cx="0" cy="0" r="70" fill="var(--icon-pad-bg)" stroke="var(--primary-text)" opacity="0.9" fill-opacity="0.9" stroke-width="2"/>
      <circle id="ITEM_3_PAD_INNER" cx="0" cy="0" r="54.60" fill="var(--accent-6)" fill-opacity="0.22"/>
      <circle cx="0" cy="0" r="56" fill="none" stroke="var(--accent-3)" stroke-width="3" stroke-dasharray="6 4" filter="url(#svgd3ef96e1-shadow)"/>
      <g id="ITEM_3_ICON" transform="translate(-42, -42)" data-icon-size="84" stroke-dasharray="6 4">
        <g transform="translate(-20.400000000000002,-20.399999999999995) scale(3.9)">
          <path d="M4 11H3V14.7294C2.62984 15.0537 2.34087 15.4691 2.17 15.94C2.165 15.95 2.1625 15.96 2.16 15.97C2.15749 15.98 2.15499 15.99 2.14999 16C2.07999 16.2 2.04 16.41 2.02 16.63L2.01999 16.6301C2.01 16.7301 2 16.83 2 16.93V29H30V16.93C30 16.78 29.99 16.63 29.96 16.49C29.94 16.32 29.9 16.15 29.85 16C29.845 15.99 29.8425 15.98 29.84 15.97C29.8375 15.96 29.835 15.95 29.83 15.94C29.42 14.81 28.34 14 27.07 14H27V11H26V14H23V11H22V14H20V12H19V14H13V12H12V14H8V11H7V14H4.92999C4.60585 14 4.29296 14.0536 4 14.1525V11Z" fill="#9B9B9B"/>
          <path d="M11.959 12H20.041C20.5704 12 21 11.57 21 11.04V6.96C21 6.43 20.5704 6 20.041 6H11.959C11.4296 6 11 6.43 11 6.96V11.04C11 11.57 11.4296 12 11.959 12ZM13 22.9933C13 21.337 14.34 20 16 20C17.66 20 19 21.337 19 22.9933V29H13V22.9933ZM4 24.9915C4 23.3362 5.34 22 7 22C8.65 22 10 23.3462 10 24.9915V29H4V24.9915ZM25 22C23.34 22 22 23.3381 22 24.9957V29H28V24.9957C28 23.3481 26.65 22 25 22Z" fill="#212121"/>
          <path d="M30 16.94V17.01H2V16.94C2 16.84 2.01 16.74 2.02 16.64C2.04 16.42 2.07999 16.21 2.14999 16.01H29.85C29.9 16.16 29.94 16.33 29.96 16.5C29.99 16.64 30 16.79 30 16.94Z" fill="#F8312F"/>
          <path d="M5.96997 3.52002C5.96997 3.79616 5.74611 4.02002 5.46997 4.02002C5.19383 4.02002 4.96997 3.79616 4.96997 3.52002C4.96997 3.24388 5.19383 3.02002 5.46997 3.02002C5.74611 3.02002 5.96997 3.24388 5.96997 3.52002ZM19.5051 8H18.495C18.2222 8 18 7.77551 18 7.5C18 7.22449 18.2222 7 18.495 7H19.5051C19.7778 7 20 7.22449 20 7.5C20 7.77551 19.7778 8 19.5051 8ZM3 10.4132V11.5551C3 11.8756 3.39933 12.086 3.76871 11.9658L5.71547 11.3447C6.09484 11.2245 6.09484 10.7938 5.71547 10.6736L3.70881 10.0225C3.36938 9.9324 3 10.1227 3 10.4132ZM7 10.4132V11.5551C7 11.8756 7.39934 12.086 7.76872 11.9658L9.71547 11.3447C10.0948 11.2245 10.0948 10.7938 9.71547 10.6736L7.70881 10.0225C7.36938 9.9324 7 10.1227 7 10.4132ZM22 11.5511V10.4067C22 10.113 22.3694 9.92062 22.7088 10.032L24.7155 10.6801C25.0948 10.8017 25.0948 11.227 24.7155 11.3485L22.7687 11.9663C22.3993 12.0878 22 11.865 22 11.5511ZM26 10.4117V11.5547C26 11.8755 26.3993 12.086 26.7687 11.9657L28.7155 11.3541C29.0948 11.2338 29.0948 10.8127 28.7155 10.6824L26.7088 10.0307C26.3694 9.92043 26 10.121 26 10.4117ZM19 10.5C19 10.7755 19.2245 11 19.5 11C19.7755 11 20 10.7755 20 10.5C20 10.2245 19.7755 10 19.5 10C19.2245 10 19 10.2245 19 10.5ZM23.49 9.02002C23.7661 9.02002 23.99 8.79616 23.99 8.52002C23.99 8.24388 23.7661 8.02002 23.49 8.02002C23.2138 8.02002 22.99 8.24388 22.99 8.52002C22.99 8.79616 23.2138 9.02002 23.49 9.02002ZM27.9399 3.53003C27.9399 3.80617 27.7161 4.03003 27.4399 4.03003C27.1638 4.03003 26.9399 3.80617 26.9399 3.53003C26.9399 3.25389 27.1638 3.03003 27.4399 3.03003C27.7161 3.03003 27.9399 3.25389 27.9399 3.53003Z" fill="#F8312F"/>
          <path d="M11.47 5.02002C11.7461 5.02002 11.97 4.79616 11.97 4.52002C11.97 4.24388 11.7461 4.02002 11.47 4.02002C11.1938 4.02002 10.97 4.24388 10.97 4.52002C10.97 4.79616 11.1938 5.02002 11.47 5.02002ZM5.80997 8.83C5.60997 9.03 5.28997 9.03 5.08997 8.83L4.12998 7.87C3.92998 7.67 3.92998 7.35 4.12998 7.15C4.32998 6.95 4.64998 6.95 4.84998 7.15L5.80997 8.11C6.00997 8.31 6.00997 8.63 5.80997 8.83ZM22.07 5.87004C22.27 6.07004 22.59 6.07004 22.79 5.87004C22.99 5.67004 22.99 5.35004 22.79 5.15004L21.83 4.19004C21.63 3.99004 21.31 3.99004 21.11 4.19004C20.91 4.39004 20.91 4.71004 21.11 4.91004L22.07 5.87004Z" fill="#8D65C5"/>
          <path d="M8.88001 4.83C8.68001 5.03 8.36001 5.03 8.16001 4.83C7.96001 4.63 7.96001 4.31 8.16001 4.11L9.12 3.15C9.32 2.95 9.64 2.95 9.84 3.15C10.04 3.35 10.04 3.67 9.84 3.87L8.88001 4.83ZM12 7.5C12 7.77551 12.2244 8 12.4998 8C12.7753 8 13.0099 7.77551 12.9997 7.5C12.9997 7.22449 12.7753 7 12.4998 7C12.2244 7 12 7.22449 12 7.5ZM12.4242 11H13.5755C13.8178 11 14.0097 10.8081 13.9996 10.5758V9.42424C13.9996 9.19192 13.8077 9 13.5755 9H12.4242C12.1919 9 12 9.19192 12 9.42424V10.5758C12 10.8081 12.1919 11 12.4242 11ZM28.47 9C28.7461 9 28.97 8.77614 28.97 8.5C28.97 8.22386 28.7461 8 28.47 8C28.1938 8 27.97 8.22386 27.97 8.5C27.97 8.77614 28.1938 9 28.47 9Z" fill="#FFB02E"/>
          <path d="M25.8099 7.83C25.6099 8.03 25.2899 8.03 25.0899 7.83C24.8999 7.63 24.8999 7.31 25.0899 7.11L26.05 6.15C26.25 5.95 26.57 5.95 26.77 6.15C26.97 6.35 26.97 6.67 26.77 6.87L25.8099 7.83ZM15 7.5C15 7.77551 15.2244 8 15.4998 8C15.7855 8 16.0099 7.77551 15.9997 7.5C15.9997 7.22449 15.7753 7 15.4998 7C15.2244 7 15 7.22449 15 7.5ZM15.4242 11H16.5755C16.8178 11 17.0097 10.811 16.9996 10.5821V9.4479C16.9996 9.21906 16.8077 9.03003 16.5755 9.03003H15.4242C15.1919 9.03003 15 9.21906 15 9.4479V10.5821C15 10.811 15.1919 11 15.4242 11ZM7.48999 8.02002C7.76613 8.02002 7.98999 7.79616 7.98999 7.52002C7.98999 7.24388 7.76613 7.02002 7.48999 7.02002C7.21385 7.02002 6.98999 7.24388 6.98999 7.52002C6.98999 7.79616 7.21385 8.02002 7.48999 8.02002Z" fill="#00D26A"/>
        </g>
      </g>
      <g transform="translate(0, 100)">
        <rect x="-200" y="-15" width="400" height="230" rx="16" fill="var(--accent-6)" fill-opacity="0.4" stroke="var(--accent-3)" id="ITEM_3_BG" stroke-width="3"/>
        <rect x="-190" y="-5" width="380" height="210" rx="14" fill="url(#svgd3ef96e1-taxonomy-node-sheen)" opacity="0.85"/>
        <rect id="ITEM_3_TEXT_BG" x="-208.0" y="-9.0" width="416.0" height="227.0" rx="22" fill="var(--panel)" fill-opacity="0.94" stroke="none" stroke-opacity="0" stroke-width="1.5"/>
        <text id="ITEM_3_HEAD" text-anchor="middle" font-weight="bold" font-size="28" fill="var(--primary-text)" x="0.0" y="7.0" data-bg-id="ITEM_3_BG" fill-opacity="1.0" stroke="none" style="font-size: 30px; font-family: Inter, Segoe UI, Kalam, Roboto, Helvetica, Arial, sans-serif; font-weight: 700; letter-spacing:-0.4px;" data-final-font-size="30">
          <tspan x="0.0" dy="35.13px">Discovery Scale</tspan>
        </text>
        <rect id="ITEM_3_HEAD_FRAME" x="-190" y="7" width="380" height="48" fill="none"/>
        <text id="ITEM_3_BODY" text-anchor="middle" font-size="21" fill="var(--primary-text)" x="0.0" y="62.0" data-bg-id="ITEM_3_TEXT_BG" opacity="0.9" style="font-size: 26px; font-family: Inter, Segoe UI, Kalam, Roboto, Helvetica, Arial, sans-serif; font-weight: 400;" data-final-font-size="26">
          <tspan x="0.0" dy="42.44px">South African artists reached 1.6</tspan>
          <tspan x="0.0" dy="29.90px">billion first-time listeners</tspan>
        </text>
        <rect id="ITEM_3_BODY_FRAME" x="-190" y="62" width="380" height="140" fill="none"/>
      </g>
    </g>
    <!-- Child Node 3 (ITEM_4) -->
    <g transform="translate(1600, 545)">
      <circle id="ITEM_4_PAD" cx="0" cy="0" r="70" fill="var(--icon-pad-bg)" stroke="var(--primary-text)" opacity="0.9" fill-opacity="0.9" stroke-width="2"/>
      <circle id="ITEM_4_PAD_INNER" cx="0" cy="0" r="54.60" fill="var(--accent-1)" fill-opacity="0.22"/>
      <circle cx="0" cy="0" r="56" fill="none" stroke="var(--accent-4)" stroke-width="3" stroke-dasharray="6 4" filter="url(#svgd3ef96e1-shadow)"/>
      <g id="ITEM_4_ICON" transform="translate(-42, -42)" data-icon-size="84" stroke-dasharray="6 4">
        <g transform="translate(-22.349999999999994,-20.400000000000002) scale(3.9)">
          <path d="M25.05 3.105L24.03 2.165C23.79 1.945 23.42 1.945 23.18 2.165L22.16 3.105C22.02 3.235 21.79 3.235 21.65 3.105L20.63 2.165C20.39 1.945 20.02 1.945 19.78 2.165L18.76 3.105C18.62 3.235 18.39 3.235 18.25 3.105L17.23 2.165C16.99 1.945 16.62 1.945 16.38 2.165L15.35 3.105C15.21 3.235 14.98 3.235 14.84 3.105L13.82 2.165C13.58 1.945 13.21 1.945 12.97 2.165L11.95 3.105C11.81 3.235 11.58 3.235 11.44 3.105L10.42 2.155C10.26 2.005 10 2.125 10 2.345V3.775V29.995H24.61C25.93 29.995 27 28.925 27 27.605V3.765V2.345C27 2.125 26.74 2.015 26.58 2.165L25.55 3.115C25.41 3.235 25.19 3.235 25.05 3.105Z" fill="#D3D3D3"/>
          <path d="M12.25 8H24.75C24.89 8 25 7.89 25 7.75V6.25C25 6.11 24.89 6 24.75 6H12.25C12.11 6 12 6.11 12 6.25V7.75C12 7.89 12.11 8 12.25 8ZM12.5 10C12.2239 10 12 10.2239 12 10.5C12 10.7761 12.2239 11 12.5 11H20.5C20.7761 11 21 10.7761 21 10.5C21 10.2239 20.7761 10 20.5 10H12.5ZM12.5 13C12.2239 13 12 13.2239 12 13.5C12 13.7761 12.2239 14 12.5 14H20.5C20.7761 14 21 13.7761 21 13.5C21 13.2239 20.7761 13 20.5 13H12.5ZM12 16.5C12 16.2239 12.2239 16 12.5 16H20.5C20.7761 16 21 16.2239 21 16.5C21 16.7761 20.7761 17 20.5 17H12.5C12.2239 17 12 16.7761 12 16.5ZM12.5 19C12.2239 19 12 19.2239 12 19.5C12 19.7761 12.2239 20 12.5 20H20.5C20.7761 20 21 19.7761 21 19.5C21 19.2239 20.7761 19 20.5 19H12.5ZM12 22.5C12 22.2239 12.2239 22 12.5 22H20.5C20.7761 22 21 22.2239 21 22.5C21 22.7761 20.7761 23 20.5 23H12.5C12.2239 23 12 22.7761 12 22.5ZM22.5 10C22.2239 10 22 10.2239 22 10.5C22 10.7761 22.2239 11 22.5 11H24.5C24.7761 11 25 10.7761 25 10.5C25 10.2239 24.7761 10 24.5 10H22.5ZM22 13.5C22 13.2239 22.2239 13 22.5 13H24.5C24.7761 13 25 13.2239 25 13.5C25 13.7761 24.7761 14 24.5 14H22.5C22.2239 14 22 13.7761 22 13.5ZM22.5 16C22.2239 16 22 16.2239 22 16.5C22 16.7761 22.2239 17 22.5 17H24.5C24.7761 17 25 16.7761 25 16.5C25 16.2239 24.7761 16 24.5 16H22.5ZM22 19.5C22 19.2239 22.2239 19 22.5 19H24.5C24.7761 19 25 19.2239 25 19.5C25 19.7761 24.7761 20 24.5 20H22.5C22.2239 20 22 19.7761 22 19.5ZM22.5 22C22.2239 22 22 22.2239 22 22.5C22 22.7761 22.2239 23 22.5 23H24.5C24.7761 23 25 22.7761 25 22.5C25 22.2239 24.7761 22 24.5 22H22.5ZM22 27.495V25.935C22 25.415 21.58 24.995 21.06 24.995H6.94C6.42 24.995 6 25.415 6 25.935V27.495C6 28.875 7.12 29.995 8.5 29.995H24.5C23.12 29.995 22 28.875 22 27.495Z" fill="#9B9B9B"/>
        </g>
      </g>
      <g transform="translate(0, 100)">
        <rect x="-200" y="-15" width="400" height="230" rx="16" fill="var(--accent-1)" fill-opacity="0.4" stroke="var(--accent-4)" id="ITEM_4_BG" stroke-width="3"/>
        <rect x="-190" y="-5" width="380" height="210" rx="14" fill="url(#svgd3ef96e1-taxonomy-node-sheen)" opacity="0.85"/>
        <rect id="ITEM_4_TEXT_BG" x="-208.0" y="-9.0" width="416.0" height="227.0" rx="22" fill="var(--panel)" fill-opacity="0.94" stroke="none" stroke-opacity="0" stroke-width="1.5"/>
        <text id="ITEM_4_HEAD" text-anchor="middle" font-weight="bold" font-size="28" fill="var(--primary-text)" x="0.0" y="7.0" data-bg-id="ITEM_4_BG" fill-opacity="1.0" stroke="none" style="font-size: 30px; font-family: Inter, Segoe UI, Kalam, Roboto, Helvetica, Arial, sans-serif; font-weight: 700; letter-spacing:-0.4px;" data-final-font-size="30">
          <tspan x="0.0" dy="35.13px">Market Expansion</tspan>
        </text>
        <rect id="ITEM_4_HEAD_FRAME" x="-190" y="7" width="380" height="48" fill="none"/>
        <text id="ITEM_4_BODY" text-anchor="middle" font-size="21" fill="var(--primary-text)" x="0.0" y="62.0" data-bg-id="ITEM_4_TEXT_BG" opacity="0.9" style="font-size: 26px; font-family: Inter, Segoe UI, Kalam, Roboto, Helvetica, Arial, sans-serif; font-weight: 400;" data-final-font-size="26">
          <tspan x="0.0" dy="42.44px">Major listening hubs include</tspan>
          <tspan x="0.0" dy="29.90px">USA, UK, and France</tspan>
        </text>
        <rect id="ITEM_4_BODY_FRAME" x="-190" y="62" width="380" height="140" fill="none"/>
      </g>
    </g>
  </g>
</svg>
