<?xml version='1.0' encoding='utf-8'?>
<svg xmlns="http://www.w3.org/2000/svg" width="1920" height="1080" viewBox="0 0 1920 1080" data-theme="light">
  <style>
        @font-face {
            font-family: 'Inter';
            src: url('assets/fonts/Inter-Regular.ttf') format('truetype');
            font-weight: 400;
            font-style: normal;
            font-display: swap;
        }
        @font-face {
            font-family: 'Inter';
            src: url('assets/fonts/Inter-Bold.ttf') format('truetype');
            font-weight: 600;
            font-style: normal;
            font-display: swap;
        }
        @font-face {
            font-family: 'Inter';
            src: url('assets/fonts/Inter-Bold.ttf') format('truetype');
            font-weight: 800;
            font-style: normal;
            font-display: swap;
        }
        
:root {
    --background: #f8fafc;
    --panel: #ffffff;
    --primary-text: #0f172a;
    --muted-text: #64748b;
    --inverse-text: #ffffff;
    --border: #e2e8f0;
    --shadow-color: #000000;
    --icon-pad-bg: #1e293b;
    --art-glow: #0891b2;
    --art-glow-opacity: 0.10;
    --art-sheen: #ffffff;
    --art-sheen-opacity: 0.34;
    --art-shadow: #0f172a;
    --art-shadow-opacity: 0.14;
    --art-muted-line: #94a3b8;
    --art-panel-tint: #f1f5f9;
    --font-family: 'Inter', 'Segoe UI', 'Kalam', Roboto, Helvetica, Arial, sans-serif;
    --radius-xl: 16px;
    --font-family-headline: 'Inter', 'Segoe UI', 'Kalam', Roboto, Helvetica, Arial, sans-serif;
    --font-family-body: 'Inter', 'Segoe UI', 'Kalam', Roboto, Helvetica, Arial, sans-serif;
    --font-heading: 'Inter', 'Segoe UI', 'Kalam', Roboto, Helvetica, Arial, sans-serif;
    --font-body: 'Inter', 'Segoe UI', 'Kalam', Roboto, Helvetica, Arial, sans-serif;
    --font-size-h1: 56px;
    --font-size-h2: 40px;
    --font-size-h3: 28px;
    --font-size-body: 24px;
    --font-size-caption: 18px;
    --secondary-text: var(--muted-text);
    --panel-border: var(--border);
    --font-weight-normal: 400;
    --font-weight-medium: 500;
    --font-weight-semibold: 600;
    --font-weight-bold: 700;
    --spacing-gutter-pct: 0.07;
    --spacing-top-pct: 0.15;
    --spacing-bottom-pct: 0.07;
    --spacing-title-y-pct: 0.055;
    --accent-1: #2563eb;
    --accent-2: #16a34a;
    --accent-3: #ea580c;
    --accent-4: #7c3aed;
    --accent-5: #0284c7;
    --accent-6: #475569;
}
:root[data-theme="dark"] {
    --background: #0f172a;
    --panel: #1e293b;
    --primary-text: #f1f5f9;
    --muted-text: #94a3b8;
    --inverse-text: #0f172a;
    --border: #334155;
    --shadow-color: #000000;
    --icon-pad-bg: #1e293b;
    --art-glow: #7dd3fc;
    --art-glow-opacity: 0.18;
    --art-sheen: #ffffff;
    --art-sheen-opacity: 0.18;
    --art-shadow: #000000;
    --art-shadow-opacity: 0.28;
    --art-muted-line: #64748b;
    --art-panel-tint: #1e293b;
    --accent-1: #60a5fa;
    --accent-2: #4ade80;
    --accent-3: #f97316;
    --accent-4: #a78bfa;
    --accent-5: #38bdf8;
    --accent-6: #94a3b8;
}
:root[data-theme="light"] {
    --background: #f8fafc;
    --panel: #ffffff;
    --primary-text: #0f172a;
    --muted-text: #64748b;
    --inverse-text: #ffffff;
    --border: #e2e8f0;
    --shadow-color: #000000;
    --icon-pad-bg: #1e293b;
    --art-glow: #0891b2;
    --art-glow-opacity: 0.10;
    --art-sheen: #ffffff;
    --art-sheen-opacity: 0.34;
    --art-shadow: #0f172a;
    --art-shadow-opacity: 0.14;
    --art-muted-line: #94a3b8;
    --art-panel-tint: #f1f5f9;
    --accent-1: #2563eb;
    --accent-2: #16a34a;
    --accent-3: #ea580c;
    --accent-4: #7c3aed;
    --accent-5: #0284c7;
    --accent-6: #475569;
}</style>
  <rect x="0" y="0" width="1.92E+3" height="1.08E+3" fill="#252a34" stroke="none" id="programmatic_background"/>
  <line id="HEADER_DECOR" x1="960.0" x2="1080.0" y1="79.0" y2="79.0" stroke="var(--accent-1)" stroke-width="6" stroke-linecap="round"/>
  <defs>
    <pattern id="svg912c26bb-napkin-hatch" patternUnits="userSpaceOnUse" width="12" height="12">
      <path d="M -3 12 L 12 -3 M 0 15 L 15 0" fill="none" stroke="var(--primary-text)" stroke-width="1" stroke-opacity="0.05"/>
    </pattern>
    <filter id="svg912c26bb-shadow" x="-30%" y="-30%" width="160%" height="160%">
      <feDropShadow dx="0" dy="2" stdDeviation="3" flood-color="#000000" flood-opacity="0.08"/>
    </filter>
    <linearGradient id="svg912c26bb-summit-grad" x1="0%" y1="0%" x2="0%" y2="100%">
      <stop offset="0%" stop-color="var(--muted-text)"/>
      <stop offset="100%" stop-color="var(--panel)"/>
    </linearGradient>
    <linearGradient id="svg912c26bb-snow-grad" x1="0%" y1="0%" x2="0%" y2="100%">
      <stop offset="0%" stop-color="var(--background)"/>
      <stop offset="100%" stop-color="var(--muted-text)"/>
    </linearGradient>
    <radialGradient id="svg912c26bb-universal-edge-vignette" cx="50%" cy="50%" r="72%">
      <stop offset="0%" stop-color="var(--background)" stop-opacity="0"/>
      <stop offset="72%" stop-color="var(--background)" stop-opacity="0.12"/>
      <stop offset="100%" stop-color="var(--primary-text)" stop-opacity="0.08"/>
    </radialGradient>
    <linearGradient id="svg912c26bb-universal-surface-sheen" x1="0%" y1="0%" x2="100%" y2="100%">
      <stop offset="0%" stop-color="var(--art-sheen)" stop-opacity="var(--art-sheen-opacity)"/>
      <stop offset="46%" stop-color="var(--art-sheen)" stop-opacity="0.035"/>
      <stop offset="100%" stop-color="var(--art-panel-tint)" stop-opacity="0.14"/>
    </linearGradient>
    <radialGradient id="svg912c26bb-universal-icon-aura" cx="50%" cy="42%" r="64%">
      <stop offset="0%" stop-color="var(--art-glow)" stop-opacity="var(--art-glow-opacity)"/>
      <stop offset="100%" stop-color="var(--background)" stop-opacity="0"/>
    </radialGradient>
    <filter id="svg912c26bb-text-glow" x="-20%" y="-20%" width="140%" height="140%">
      <feDropShadow dx="0" dy="0" stdDeviation="2" flood-color="#000000" flood-opacity="0.4"/>
    </filter>
    <marker id="svg912c26bb-arrowhead" markerWidth="10" markerHeight="7" refX="9" refY="3.5" orient="auto" markerUnits="strokeWidth">
      <polygon points="0 0, 10 3.5, 0 7" fill="var(--muted-text)" opacity="0.6"/>
    </marker>
  </defs>
  <rect width="100%" height="100%" fill="var(--background)" id="CANVAS_BG"/>
  <rect width="100%" height="100%" fill="url(#svg912c26bb-napkin-hatch)"/>
  <rect id="UNIVERSAL_EDGE_VIGNETTE" width="100%" height="100%" fill="url(#svg912c26bb-universal-edge-vignette)" opacity="0.62"/>
  <text id="TITLE" x="960.0" y="59" font-size="48" font-weight="700" fill="#0f172a" text-anchor="middle" style="font-size: 60px; font-family: Inter, Segoe UI, Kalam, Roboto, Helvetica, Arial, sans-serif; font-weight: 700; letter-spacing:-1.2px;" data-final-font-size="60">
    <tspan x="960.0" dy="68.00px">Spotify Royalty Income Thresholds</tspan>
  </text>
  <rect id="TITLE_FRAME" x="134" y="10" width="1652" height="60" fill="none"/>
  <g id="DIAGRAM_MAIN">
    <!-- Mountain Base -->
    <path d="M -100 1080  L -25.0 1007.0 L 65.0 874.0 L 65.0 821.0 L 155.0 688.0 L 245.0 635.0 L 245.0 502.0 L 335.0 449.0 L 425.0 316.0 L 425.0 263.0 L 500 150 L 580.0 258.0 L 600.0 381.0 L 700.0 414.0 L 720.0 537.0 L 820.0 660.0 L 840.0 693.0 L 940.0 816.0 L 960.0 939.0 L 1060.0 972.0 L 1100 1080 Z" fill="url(#svg912c26bb-summit-grad)" stroke="var(--primary-text)" stroke-width="3" stroke-linejoin="round" stroke-opacity="0.4"/>
    <!-- Snow Cap -->
    <path d="M 380 300 L 420 280 L 470 310 L 520 280 L 560 320 L 600 290 L 640 340 L 500 150 Z" fill="url(#svg912c26bb-snow-grad)" stroke="var(--primary-text)" stroke-width="2" stroke-linejoin="round" stroke-opacity="0.6"/>
    <!-- Connecting Zig-Zag Trail -->
    <path d="M 983.8709677419354 900.0 L 833.3333333333333 666.6666666666666 L 682.7956989247311 433.3333333333333 L 532.258064516129 240.0" fill="none" stroke="var(--muted-text)" stroke-width="4" stroke-dasharray="12 10" stroke-linecap="round" opacity="0.6"/>
    <circle id="ITEM_1_BORDER" cx="983.8709677419354" cy="900.0" r="37" fill="var(--background)" stroke="var(--accent-1)" stroke-width="3"/>
    <circle id="ITEM_1_STROKE" cx="983.8709677419354" cy="900.0" r="45" fill="transparent" stroke="var(--accent-6)" stroke-width="3" stroke-dasharray="6 4" stroke-opacity="1.0"/>
    <circle id="ITEM_1_PAD" cx="983.87" cy="900.00" r="40.00" fill="var(--icon-pad-bg)" stroke="var(--primary-text)" stroke-width="2" opacity="0.9"/>
    <circle id="ITEM_1_PAD_INNER" cx="983.87" cy="900.00" r="31.20" fill="var(--accent-6)" fill-opacity="0.22"/>
    <g id="ITEM_1_ICON" transform="translate(958.8709677419354, 875.0)" data-icon-size="50" stroke-dasharray="6 4">
      <g transform="translate(-10.65714285714286,-11.771428571428572) scale(2.2285714285714286)">
        <path d="M22.5247 17.94C26.6502 17.94 29.9947 14.5956 29.9947 10.47C29.9947 6.34443 26.6502 3 22.5247 3C18.3991 3 15.0547 6.34443 15.0547 10.47C15.0547 14.5956 18.3991 17.94 22.5247 17.94Z" fill="#533566"/>
        <path d="M2.64445 29.2101C1.81445 28.3301 1.78446 26.9601 2.56446 26.0401L15.1045 11.3401L21.2145 17.8201L5.80445 29.4801C4.84445 30.2101 3.47445 30.0901 2.64445 29.2101Z" fill="#9B9B9B"/>
        <path d="M18.9958 4.00515L28.9358 14.5552C29.5958 15.2552 29.5658 16.3552 28.8658 17.0051C28.1658 17.6651 27.0758 17.6352 26.4158 16.9352L16.4758 6.38515C15.8158 5.68515 15.8458 4.59517 16.5458 3.93517C17.2458 3.27517 18.3358 3.30515 18.9958 4.00515ZM15.4146 18.5302C15.4146 19.342 14.7565 20.0002 13.9446 20.0002C13.1328 20.0002 12.4746 19.342 12.4746 18.5302C12.4746 17.7183 13.1328 17.0602 13.9446 17.0602C14.7565 17.0602 15.4146 17.7183 15.4146 18.5302Z" fill="#BEBEBE"/>
      </g>
    </g>
    <!-- Connector line to the rigid text column -->
    <line id="ITEM_1_CONN" x1="1028.8709677419354" y1="900.0" x2="1230" y2="900.0" stroke="var(--accent-6)" stroke-width="2" stroke-dasharray="6 4" opacity="0.6" stroke-opacity="1.0"/>
    <circle id="ITEM_1_DOT" cx="1230" cy="900.0" r="5" fill="var(--accent-6)" fill-opacity="1.0"/>
    <rect id="ITEM_1_HEAD_FRAME" x="1250" y="840.0" width="620" height="45" fill="none"/>
    <rect id="ITEM_1_TEXT_BG" x="1232" y="826" width="656" height="182" rx="22" fill="var(--panel)" fill-opacity="0.94" stroke="var(--accent-1)" stroke-width="2"/>
    <text id="ITEM_1_HEAD" x="1250.0" y="840.0" font-weight="bold" font-size="28" fill="var(--accent-6)" text-anchor="start" data-bg-id="ITEM_1_TEXT_BG" fill-opacity="1.0" style="font-size: 30px; font-family: Inter, Segoe UI, Kalam, Roboto, Helvetica, Arial, sans-serif; font-weight: 700; letter-spacing:-0.4px;" data-final-font-size="30">
      <tspan x="1250.0" dy="30.75px">Entry Level</tspan>
    </text>
    <rect id="ITEM_1_BODY_FRAME" x="1250" y="905.0" width="620" height="85" fill="none"/>
    <text id="ITEM_1_BODY" x="1250.0" y="905.0" font-size="18" fill="var(--primary-text)" text-anchor="start" data-bg-id="ITEM_1_TEXT_BG" style="font-size: 26px; font-family: Inter, Segoe UI, Kalam, Roboto, Helvetica, Arial, sans-serif; font-weight: 400;" data-final-font-size="26">
      <tspan x="1250.0" dy="25.84px">Thousands of artists generate over</tspan>
      <tspan x="1250.0" dy="29.90px">$10,000 annually</tspan>
    </text>
    <circle id="ITEM_2_BORDER" cx="833.3333333333333" cy="666.6666666666666" r="37" fill="var(--background)" stroke="var(--accent-2)" stroke-width="3"/>
    <circle id="ITEM_2_STROKE" cx="833.3333333333333" cy="666.6666666666666" r="45" fill="transparent" stroke="var(--accent-1)" stroke-width="3" stroke-dasharray="6 4" stroke-opacity="1.0"/>
    <circle id="ITEM_2_PAD" cx="833.33" cy="666.67" r="40.00" fill="var(--icon-pad-bg)" stroke="var(--primary-text)" stroke-width="2" opacity="0.9"/>
    <circle id="ITEM_2_PAD_INNER" cx="833.33" cy="666.67" r="31.20" fill="var(--accent-1)" fill-opacity="0.22"/>
    <g id="ITEM_2_ICON" transform="translate(808.3333333333333, 641.6666666666666)" data-icon-size="50" stroke-dasharray="6 4">
      <g transform="translate(-16.184000000000008,-13.688000000000006) scale(2.4960000000000004)" vector-effect="non-scaling-stroke" fill="#f1f5f9" fill-opacity="1.0" stroke="none">
        <path fill="#f1f5f9" d="M16 17v8H6v-8zm0-2H6a2 2 0 0 0-2 2v8a2 2 0 0 0 2 2h10a2 2 0 0 0 2-2v-8a2 2 0 0 0-2-2m11-9v5H17V6zm0-2H17a2 2 0 0 0-2 2v5a2 2 0 0 0 2 2h10a2 2 0 0 0 2-2V6a2 2 0 0 0-2-2m0 13v5h-5v-5zm0-2h-5a2 2 0 0 0-2 2v5a2 2 0 0 0 2 2h5a2 2 0 0 0 2-2v-5a2 2 0 0 0-2-2M11 6v5H6V6zm0-2H6a2 2 0 0 0-2 2v5a2 2 0 0 0 2 2h5a2 2 0 0 0 2-2V6a2 2 0 0 0-2-2" vector-effect="non-scaling-stroke" stroke="none"/>
      </g>
    </g>
    <!-- Connector line to the rigid text column -->
    <line id="ITEM_2_CONN" x1="878.3333333333333" y1="666.6666666666666" x2="1230" y2="666.6666666666666" stroke="var(--accent-1)" stroke-width="2" stroke-dasharray="6 4" opacity="0.6" stroke-opacity="1.0"/>
    <circle id="ITEM_2_DOT" cx="1230" cy="666.6666666666666" r="5" fill="var(--accent-1)" fill-opacity="1.0"/>
    <rect id="ITEM_2_HEAD_FRAME" x="1250" y="606.6666666666666" width="620" height="45" fill="none"/>
    <rect id="ITEM_2_TEXT_BG" x="1232" y="592.6666666666666" width="656" height="182" rx="22" fill="var(--panel)" fill-opacity="0.94" stroke="var(--accent-2)" stroke-width="2"/>
    <text id="ITEM_2_HEAD" x="1250.0" y="606.6666666666666" font-weight="bold" font-size="28" fill="var(--accent-1)" text-anchor="start" data-bg-id="ITEM_2_TEXT_BG" fill-opacity="1.0" style="font-size: 30px; font-family: Inter, Segoe UI, Kalam, Roboto, Helvetica, Arial, sans-serif; font-weight: 700; letter-spacing:-0.4px;" data-final-font-size="30">
      <tspan x="1250.0" dy="30.75px">Middle Tier</tspan>
    </text>
    <rect id="ITEM_2_BODY_FRAME" x="1250" y="671.6666666666666" width="620" height="85" fill="none"/>
    <text id="ITEM_2_BODY" x="1250.0" y="671.6666666666666" font-size="18" fill="var(--primary-text)" text-anchor="start" data-bg-id="ITEM_2_TEXT_BG" style="font-size: 26px; font-family: Inter, Segoe UI, Kalam, Roboto, Helvetica, Arial, sans-serif; font-weight: 400;" data-final-font-size="26">
      <tspan x="1250.0" dy="25.84px">Over 13,800 artists reached the $100,000</tspan>
      <tspan x="1250.0" dy="29.90px">milestone in 2025</tspan>
    </text>
    <circle id="ITEM_3_BORDER" cx="682.7956989247311" cy="433.3333333333333" r="37" fill="var(--background)" stroke="var(--accent-3)" stroke-width="3"/>
    <circle id="ITEM_3_STROKE" cx="682.7956989247311" cy="433.3333333333333" r="45" fill="transparent" stroke="var(--accent-2)" stroke-width="3" stroke-dasharray="6 4" stroke-opacity="1.0"/>
    <circle id="ITEM_3_PAD" cx="682.80" cy="433.33" r="40.00" fill="var(--icon-pad-bg)" stroke="var(--primary-text)" stroke-width="2" opacity="0.9"/>
    <circle id="ITEM_3_PAD_INNER" cx="682.80" cy="433.33" r="31.20" fill="var(--accent-2)" fill-opacity="0.22"/>
    <g id="ITEM_3_ICON" transform="translate(657.7956989247311, 408.3333333333333)" data-icon-size="50" stroke-dasharray="6 4">
      <g transform="translate(-9.821428571428573,-10.65714285714286) scale(2.2285714285714286)">
        <path d="M10.5208 7.52114C10.0012 5.7093 8.1239 4.65179 6.30748 5.15196C6.27354 5.1604 6.20545 5.17748 6.14394 5.19799C3.65095 6.02898 3.45292 9.41201 5.68876 10.6483L10.6585 13.3981C11.0772 13.6298 11.6044 13.4782 11.8361 13.0595C12.0678 12.6408 11.9161 12.1135 11.4974 11.8819L6.52712 9.13168C5.54516 8.58886 5.70443 7.17631 6.68631 6.84385L6.69246 6.84216C6.70347 6.83922 6.7167 6.8359 6.73807 6.83055C6.74577 6.82863 6.75344 6.8266 6.76109 6.82446C7.66072 6.57309 8.59583 7.09488 8.85505 7.99882C8.98695 8.45881 9.46678 8.72477 9.92677 8.59286C10.3868 8.46095 10.6527 7.98112 10.5208 7.52114Z" fill="#D3883E"/>
        <path d="M22.4608 7.99882C22.72 7.09488 23.6552 6.57309 24.5548 6.82446C24.5624 6.8266 24.5701 6.82863 24.5778 6.83055C24.5992 6.8359 24.6124 6.83922 24.6234 6.84216L24.6296 6.84385C25.6114 7.17631 25.7704 8.58902 24.7884 9.13185L19.8184 11.8819C19.3997 12.1135 19.2481 12.6408 19.4798 13.0595C19.7115 13.4782 20.2387 13.6298 20.6574 13.3981L25.6274 10.6481C27.8633 9.41184 27.6649 6.02898 25.1719 5.19799C25.1104 5.17748 25.0423 5.1604 25.0084 5.15196C23.192 4.65179 21.3146 5.7093 20.7951 7.52114C20.6632 7.98112 20.9291 8.46095 21.3891 8.59286C21.8491 8.72477 22.3289 8.45881 22.4608 7.99882Z" fill="#D3883E"/>
        <path d="M17.328 17.51V13.29H13.9879V17.51C13.9879 18.25 13.658 18.96 13.088 19.43L11.168 21.03H20.1479L18.228 19.43C17.658 18.95 17.328 18.25 17.328 17.51Z" fill="#D3883E"/>
        <path d="M15.658 16.54C11.808 16.54 8.68799 13.42 8.68799 9.56999V2.70999C8.68799 2.31999 9.00798 2 9.39798 2H21.928C22.318 2 22.638 2.31999 22.638 2.70999V9.56999C22.638 13.42 19.518 16.54 15.658 16.54Z" fill="#FFB02E"/>
        <path d="M22.7923 21.03H8.19719C7.42737 21.03 6.77355 21.54 6.62592 22.25L5.01245 29.34C4.93863 29.67 5.20226 29.98 5.56081 29.98H25.4392C25.7977 29.98 26.0614 29.67 25.9876 29.34L24.3741 22.25C24.2159 21.54 23.5621 21.03 22.7923 21.03Z" fill="#6D4534"/>
        <path d="M18.383 23.96H12.617C12.2817 23.96 12.004 24.24 12.004 24.6V26.41C12.004 26.76 12.2721 27.05 12.617 27.05H18.383C18.7183 27.05 18.996 26.77 18.996 26.41V24.6C18.996 24.25 18.7278 23.96 18.383 23.96Z" fill="#FFB02E"/>
      </g>
    </g>
    <!-- Connector line to the rigid text column -->
    <line id="ITEM_3_CONN" x1="727.7956989247311" y1="433.3333333333333" x2="1230" y2="433.3333333333333" stroke="var(--accent-2)" stroke-width="2" stroke-dasharray="6 4" opacity="0.6" stroke-opacity="1.0"/>
    <circle id="ITEM_3_DOT" cx="1230" cy="433.3333333333333" r="5" fill="var(--accent-2)" fill-opacity="1.0"/>
    <rect id="ITEM_3_HEAD_FRAME" x="1250" y="373.3333333333333" width="620" height="45" fill="none"/>
    <rect id="ITEM_3_TEXT_BG" x="1232" y="359.3333333333333" width="656" height="182" rx="22" fill="var(--panel)" fill-opacity="0.94" stroke="var(--accent-3)" stroke-width="2"/>
    <text id="ITEM_3_HEAD" x="1250.0" y="373.3333333333333" font-weight="bold" font-size="28" fill="var(--primary-text)" text-anchor="start" data-bg-id="ITEM_3_TEXT_BG" fill-opacity="1.0" style="font-size: 30px; font-family: Inter, Segoe UI, Kalam, Roboto, Helvetica, Arial, sans-serif; font-weight: 700; letter-spacing:-0.4px;" data-final-font-size="30">
      <tspan x="1250.0" dy="30.75px">High Earners</tspan>
    </text>
    <rect id="ITEM_3_BODY_FRAME" x="1250" y="438.3333333333333" width="620" height="85" fill="none"/>
    <text id="ITEM_3_BODY" x="1250.0" y="438.3333333333333" font-size="18" fill="var(--primary-text)" text-anchor="start" data-bg-id="ITEM_3_TEXT_BG" style="font-size: 26px; font-family: Inter, Segoe UI, Kalam, Roboto, Helvetica, Arial, sans-serif; font-weight: 400;" data-final-font-size="26">
      <tspan x="1250.0" dy="31.82px">More than 1,500 artists generated over $1 million</tspan>
    </text>
    <circle id="ITEM_4_BORDER" cx="532.258064516129" cy="240.0" r="37" fill="var(--background)" stroke="var(--accent-4)" stroke-width="3"/>
    <circle id="ITEM_4_STROKE" cx="532.258064516129" cy="240.0" r="45" fill="transparent" stroke="var(--accent-3)" stroke-width="3" stroke-dasharray="6 4" stroke-opacity="1.0"/>
    <circle id="ITEM_4_PAD" cx="532.26" cy="240.00" r="40.00" fill="var(--icon-pad-bg)" stroke="var(--primary-text)" stroke-width="2" opacity="0.9"/>
    <circle id="ITEM_4_PAD_INNER" cx="532.26" cy="240.00" r="31.20" fill="var(--accent-3)" fill-opacity="0.22"/>
    <g id="ITEM_4_ICON" transform="translate(507.258064516129, 215.0)" data-icon-size="50" stroke-dasharray="6 4">
      <g transform="translate(-10.65714285714286,-16.22857142857143) scale(2.2285714285714286)">
        <path fill-rule="evenodd" clip-rule="evenodd" d="M6.93979 23.5C6.93979 24.3726 6.23239 25.08 5.35979 25.08C4.48718 25.08 3.77979 24.3726 3.77979 23.5C3.77979 22.6274 4.48718 21.92 5.35979 21.92C6.23239 21.92 6.93979 22.6274 6.93979 23.5ZM28.1998 23.5C28.1998 24.3726 27.4924 25.08 26.6198 25.08C25.7472 25.08 25.0398 24.3726 25.0398 23.5C25.0398 22.6274 25.7472 21.92 26.6198 21.92C27.4924 21.92 28.1998 22.6274 28.1998 23.5Z" fill="#00A6ED"/>
        <path fill-rule="evenodd" clip-rule="evenodd" d="M10.2498 13.27L13.4298 17.54L6.83984 18.3L8.95984 13.41C8.44984 13.21 8.08984 12.71 8.08984 12.13C8.08984 11.37 8.70984 10.75 9.46984 10.75C10.2298 10.75 10.8498 11.37 10.8498 12.13C10.8498 12.61 10.6098 13.02 10.2498 13.27ZM23.01 13.41L25.13 18.3L18.54 17.54L21.72 13.27C21.36 13.02 21.12 12.6 21.12 12.13C21.12 11.37 21.74 10.75 22.5 10.75C23.26 10.75 23.88 11.37 23.88 12.13C23.88 12.71 23.52 13.21 23.01 13.41Z" fill="#E19747"/>
        <path d="M29.98 13.09C29.98 12.33 29.36 11.71 28.6 11.71C27.84 11.71 27.22 12.33 27.22 13.09C27.22 13.37 27.31 13.64 27.45 13.85C27.23 13.85 27.01 13.9 26.8 14.04L22.87 16.58C22.35 16.91 21.67 16.79 21.3 16.29L16.93 10.36C16.9 10.31 16.86 10.27 16.82 10.23C17.35 9.94001 17.71 9.37 17.71 8.72C17.71 7.77 16.94 7 15.99 7C15.04 7 14.27 7.77 14.27 8.72C14.27 9.37 14.63 9.94001 15.16 10.23C15.12 10.27 15.08 10.31 15.05 10.36L10.68 16.29C10.32 16.79 9.63 16.91 9.11 16.58L5.18 14.04C4.97 13.9 4.75 13.85 4.53 13.85C4.68 13.63 4.76 13.37 4.76 13.09C4.76 12.33 4.14 11.71 3.38 11.71C2.62 11.71 2 12.33 2 13.09C2 13.85 2.62 14.47 3.38 14.47C3.43 14.47 3.48 14.47 3.52 14.46C3.39 14.69 3.34 14.96 3.4 15.25L6 28.22C6.19 29.15 7.01 29.82 7.96 29.82H10.03H15.99H21.95H24.02C24.97 29.82 25.79 29.15 25.98 28.22L28.58 15.25C28.64 14.96 28.58 14.68 28.46 14.46C28.51 14.46 28.56 14.47 28.6 14.47C29.36 14.47 29.98 13.85 29.98 13.09Z" fill="#FFB02E"/>
        <path d="M15.99 26C17.3707 26 18.49 24.8807 18.49 23.5C18.49 22.1193 17.3707 21 15.99 21C14.6093 21 13.49 22.1193 13.49 23.5C13.49 24.8807 14.6093 26 15.99 26Z" fill="#00A6ED"/>
        <path fill-rule="evenodd" clip-rule="evenodd" d="M11 23.5C11 24.3284 10.3284 25 9.5 25C8.67157 25 8 24.3284 8 23.5C8 22.6716 8.67157 22 9.5 22C10.3284 22 11 22.6716 11 23.5ZM24 23.5C24 24.3284 23.3284 25 22.5 25C21.6716 25 21 24.3284 21 23.5C21 22.6716 21.6716 22 22.5 22C23.3284 22 24 22.6716 24 23.5Z" fill="#F8312F"/>
      </g>
    </g>
    <!-- Connector line to the rigid text column -->
    <line id="ITEM_4_CONN" x1="577.258064516129" y1="240.0" x2="1230" y2="240.0" stroke="var(--accent-3)" stroke-width="2" stroke-dasharray="6 4" opacity="0.6" stroke-opacity="1.0"/>
    <circle id="ITEM_4_DOT" cx="1230" cy="240.0" r="5" fill="var(--accent-3)" fill-opacity="1.0"/>
    <rect id="ITEM_4_HEAD_FRAME" x="1250" y="180.0" width="620" height="45" fill="none"/>
    <rect id="ITEM_4_TEXT_BG" x="1232" y="166" width="656" height="182" rx="22" fill="var(--panel)" fill-opacity="0.94" stroke="var(--accent-4)" stroke-width="2"/>
    <text id="ITEM_4_HEAD" x="1250.0" y="180.0" font-weight="bold" font-size="28" fill="var(--primary-text)" text-anchor="start" data-bg-id="ITEM_4_TEXT_BG" fill-opacity="1.0" style="font-size: 30px; font-family: Inter, Segoe UI, Kalam, Roboto, Helvetica, Arial, sans-serif; font-weight: 700; letter-spacing:-0.4px;" data-final-font-size="30">
      <tspan x="1250.0" dy="30.75px">Elite Status</tspan>
    </text>
    <rect id="ITEM_4_BODY_FRAME" x="1250" y="245.0" width="620" height="85" fill="none"/>
    <text id="ITEM_4_BODY" x="1250.0" y="245.0" font-size="18" fill="var(--primary-text)" text-anchor="start" data-bg-id="ITEM_4_TEXT_BG" style="font-size: 26px; font-family: Inter, Segoe UI, Kalam, Roboto, Helvetica, Arial, sans-serif; font-weight: 400;" data-final-font-size="26">
      <tspan x="1250.0" dy="25.84px">80 artists generated over $10 million each</tspan>
      <tspan x="1250.0" dy="29.90px">last year</tspan>
    </text>
  </g>
</svg>
