<?xml version='1.0' encoding='utf-8'?>
<svg xmlns="http://www.w3.org/2000/svg" width="1920" height="1080" viewBox="0 0 1920 1080" data-theme="dark">
  <style>
        @font-face {
            font-family: 'Inter';
            src: url('assets/fonts/Inter-Regular.ttf') format('truetype');
            font-weight: 400;
            font-style: normal;
            font-display: swap;
        }
        @font-face {
            font-family: 'Inter';
            src: url('assets/fonts/Inter-Bold.ttf') format('truetype');
            font-weight: 600;
            font-style: normal;
            font-display: swap;
        }
        @font-face {
            font-family: 'Inter';
            src: url('assets/fonts/Inter-Bold.ttf') format('truetype');
            font-weight: 800;
            font-style: normal;
            font-display: swap;
        }
        
:root {
    --background: #0f172a;
    --panel: #1e293b;
    --primary-text: #f1f5f9;
    --muted-text: #94a3b8;
    --inverse-text: #0f172a;
    --border: #334155;
    --shadow-color: #000000;
    --icon-pad-bg: #1e293b;
    --art-glow: #7dd3fc;
    --art-glow-opacity: 0.18;
    --art-sheen: #ffffff;
    --art-sheen-opacity: 0.18;
    --art-shadow: #000000;
    --art-shadow-opacity: 0.28;
    --art-muted-line: #64748b;
    --art-panel-tint: #1e293b;
    --font-family: 'Inter', 'Segoe UI', 'Kalam', Roboto, Helvetica, Arial, sans-serif;
    --radius-xl: 16px;
    --font-family-headline: 'Inter', 'Segoe UI', 'Kalam', Roboto, Helvetica, Arial, sans-serif;
    --font-family-body: 'Inter', 'Segoe UI', 'Kalam', Roboto, Helvetica, Arial, sans-serif;
    --font-heading: 'Inter', 'Segoe UI', 'Kalam', Roboto, Helvetica, Arial, sans-serif;
    --font-body: 'Inter', 'Segoe UI', 'Kalam', Roboto, Helvetica, Arial, sans-serif;
    --font-size-h1: 56px;
    --font-size-h2: 40px;
    --font-size-h3: 28px;
    --font-size-body: 24px;
    --font-size-caption: 18px;
    --secondary-text: var(--muted-text);
    --panel-border: var(--border);
    --font-weight-normal: 400;
    --font-weight-medium: 500;
    --font-weight-semibold: 600;
    --font-weight-bold: 700;
    --spacing-gutter-pct: 0.07;
    --spacing-top-pct: 0.15;
    --spacing-bottom-pct: 0.07;
    --spacing-title-y-pct: 0.055;
    --accent-1: #22d3ee;
    --accent-2: #f472b6;
    --accent-3: #facc15;
    --accent-4: #a3e635;
    --accent-5: #fb923c;
    --accent-6: #c084fc;
}
:root[data-theme="dark"] {
    --background: #0f172a;
    --panel: #1e293b;
    --primary-text: #f1f5f9;
    --muted-text: #94a3b8;
    --inverse-text: #0f172a;
    --border: #334155;
    --shadow-color: #000000;
    --icon-pad-bg: #1e293b;
    --art-glow: #7dd3fc;
    --art-glow-opacity: 0.18;
    --art-sheen: #ffffff;
    --art-sheen-opacity: 0.18;
    --art-shadow: #000000;
    --art-shadow-opacity: 0.28;
    --art-muted-line: #64748b;
    --art-panel-tint: #1e293b;
    --accent-1: #22d3ee;
    --accent-2: #f472b6;
    --accent-3: #facc15;
    --accent-4: #a3e635;
    --accent-5: #fb923c;
    --accent-6: #c084fc;
}
:root[data-theme="light"] {
    --background: #f8fafc;
    --panel: #ffffff;
    --primary-text: #0f172a;
    --muted-text: #64748b;
    --inverse-text: #ffffff;
    --border: #e2e8f0;
    --shadow-color: #000000;
    --icon-pad-bg: #1e293b;
    --art-glow: #0891b2;
    --art-glow-opacity: 0.10;
    --art-sheen: #ffffff;
    --art-sheen-opacity: 0.34;
    --art-shadow: #0f172a;
    --art-shadow-opacity: 0.14;
    --art-muted-line: #94a3b8;
    --art-panel-tint: #f1f5f9;
    --accent-1: #0891b2;
    --accent-2: #db2777;
    --accent-3: #ca8a04;
    --accent-4: #65a30d;
    --accent-5: #ea580c;
    --accent-6: #9333ea;
}</style>
  <rect x="0" y="0" width="1.92E+3" height="1.08E+3" fill="#252a34" stroke="none" id="programmatic_background"/>
  <line id="HEADER_DECOR" x1="960.0" x2="1080.0" y1="135.0" y2="135.0" stroke="var(--accent-1)" stroke-width="6" stroke-linecap="round"/>
  <defs>
    <pattern id="svg2f681994-napkin-hatch" patternUnits="userSpaceOnUse" width="12" height="12">
      <path d="M -3 12 L 12 -3 M 0 15 L 15 0" fill="none" stroke="var(--primary-text)" stroke-width="1" stroke-opacity="0.05"/>
    </pattern>
    <filter id="svg2f681994-shadow" x="-30%" y="-30%" width="160%" height="160%">
      <feDropShadow dx="0" dy="2" stdDeviation="3" flood-color="#000000" flood-opacity="0.08"/>
      <feDropShadow dx="0" dy="6" stdDeviation="10" flood-color="#000000" flood-opacity="0.12"/>
    </filter>
    <radialGradient id="svg2f681994-universal-edge-vignette" cx="50%" cy="50%" r="72%">
      <stop offset="0%" stop-color="var(--background)" stop-opacity="0"/>
      <stop offset="72%" stop-color="var(--background)" stop-opacity="0.12"/>
      <stop offset="100%" stop-color="var(--primary-text)" stop-opacity="0.08"/>
    </radialGradient>
    <linearGradient id="svg2f681994-universal-surface-sheen" x1="0%" y1="0%" x2="100%" y2="100%">
      <stop offset="0%" stop-color="var(--art-sheen)" stop-opacity="var(--art-sheen-opacity)"/>
      <stop offset="46%" stop-color="var(--art-sheen)" stop-opacity="0.035"/>
      <stop offset="100%" stop-color="var(--art-panel-tint)" stop-opacity="0.14"/>
    </linearGradient>
    <radialGradient id="svg2f681994-universal-icon-aura" cx="50%" cy="42%" r="64%">
      <stop offset="0%" stop-color="var(--art-glow)" stop-opacity="var(--art-glow-opacity)"/>
      <stop offset="100%" stop-color="var(--background)" stop-opacity="0"/>
    </radialGradient>
    <linearGradient id="svg2f681994-fact-card-sheen" x1="0%" y1="0%" x2="100%" y2="100%">
      <stop offset="0%" stop-color="var(--inverse-text)" stop-opacity="0.18"/>
      <stop offset="54%" stop-color="var(--inverse-text)" stop-opacity="0.04"/>
      <stop offset="100%" stop-color="var(--background)" stop-opacity="0.14"/>
    </linearGradient>
    <radialGradient id="svg2f681994-fact-icon-glow" cx="50%" cy="42%" r="62%">
      <stop offset="0%" stop-color="var(--inverse-text)" stop-opacity="0.22"/>
      <stop offset="100%" stop-color="var(--background)" stop-opacity="0"/>
    </radialGradient>
    <filter id="svg2f681994-text-glow" x="-20%" y="-20%" width="140%" height="140%">
      <feDropShadow dx="0" dy="0" stdDeviation="2" flood-color="#000000" flood-opacity="0.4"/>
    </filter>
    <marker id="svg2f681994-arrowhead" markerWidth="10" markerHeight="7" refX="9" refY="3.5" orient="auto" markerUnits="strokeWidth">
      <polygon points="0 0, 10 3.5, 0 7" fill="var(--muted-text)" opacity="0.6"/>
    </marker>
  </defs>
  <rect width="100%" height="100%" fill="var(--background)" id="CANVAS_BG"/>
  <rect width="100%" height="100%" fill="url(#svg2f681994-napkin-hatch)"/>
  <rect id="UNIVERSAL_EDGE_VIGNETTE" width="100%" height="100%" fill="url(#svg2f681994-universal-edge-vignette)" opacity="0.62"/>
  <line x1="960" y1="178" x2="960" y2="986" stroke="var(--muted-text)" stroke-width="5" stroke-opacity="0.10" stroke-linecap="round"/>
  <path d="M 360 178 C 620 152 1300 152 1560 178" fill="none" stroke="var(--primary-text)" stroke-width="2" stroke-opacity="0.12" stroke-linecap="round"/>
  <text id="TITLE" x="960.0" y="59" font-size="72" font-weight="800" fill="#f1f5f9" style="font-size: 60px; font-family: Inter, Segoe UI, Kalam, Roboto, Helvetica, Arial, sans-serif; font-weight: 700; letter-spacing:-1.2px;" text-anchor="middle" data-final-font-size="60">
    <tspan x="960.0" dy="68.00px">ScienceDirect Vibe Study</tspan>
  </text>
  <rect id="TITLE_FRAME" x="134" y="59" width="1652" height="103" fill="none"/>
  <g transform="translate(960.0, 220.0)">
    <rect id="ITEM_1_BG" x="-600" y="-64" width="1200" height="184" rx="18" fill="var(--accent-3)" stroke="var(--accent-1)" filter="url(#svg2f681994-shadow)" stroke-width="3" fill-opacity="0.4"/>
    <g transform="translate(-480.0, 0.0)">
      <circle r="45" fill="var(--background)" opacity="0.3"/>
      <circle id="ITEM_1_PAD" cx="0" cy="0" r="42" fill="var(--icon-pad-bg)" stroke="var(--primary-text)" opacity="0.9" fill-opacity="0.9" stroke-width="2"/>
      <circle id="ITEM_1_PAD_INNER" cx="0" cy="0" r="32.76" fill="var(--accent-3)" fill-opacity="0.22"/>
      <circle cx="0" cy="0" r="34" fill="none" stroke="var(--accent-1)" stroke-width="3" stroke-dasharray="6 4"/>
      <g id="ITEM_1_ICON" transform="translate(-34, -34)" data-icon-size="68" stroke-dasharray="6 4">
        <g transform="translate(-5.563636363636366,-5.5636363636363635) scale(1.9781818181818183)">
          <path d="m31.466,14.466c0-6.333-5.134-11.466-11.466-11.466s-11.466,5.134-11.466,11.466v15.902c0,3.663,2.969,6.632,6.632,6.632,2.372,0,4.447-1.249,5.619-3.121l.007.002,8.499-12.695-.012-.004c1.369-1.889,2.186-4.204,2.186-6.716Z" fill="#ffc84d"/>
          <path d="m18.79,25.338c0,2.137-1.732,3.869-3.869,3.869-1.829,0-3.869-2.642-3.869-2.642v-1.226c0-2.137,1.732-3.869,3.869-3.869s3.869,1.732,3.869,3.869Z" fill="#cc6a00"/>
          <path d="m27.477,15.699c0-4.536-3.677-8.213-8.213-8.213s-8.213,3.677-8.213,8.213v.202c.485-.138.986-.235,1.515-.235,3.074,0,5.567,2.492,5.567,5.567s-2.492,5.567-5.567,5.567c-.529,0-1.03-.097-1.515-.235v.524c0,2.624,2.127,4.75,4.75,4.75,1.699,0,3.185-.895,4.025-2.235h.005s6.088-9.092,6.088-9.092l-.009-.003c.981-1.353,1.566-3.011,1.566-4.81Z" fill="#ffa52e"/>
          <path d="m27.312,14.055c-.762-3.748-4.075-6.569-8.047-6.569-4.536,0-8.213,3.677-8.213,8.213v.202c.485-.138.986-.235,1.515-.235.579,0,1.137.089,1.661.252h0s4.129-8.274,13.084-1.863Z" fill="#f78700"/>
        </g>
      </g>
    </g>
    <g transform="translate(-330, -34)">
      <text id="ITEM_1_HEAD" text-anchor="start" font-weight="bold" font-size="29" fill="var(--primary-text)" x="0.0" y="-10.0" data-bg-id="ITEM_1_BG" fill-opacity="1.0" stroke="none" style="font-size: 30px; font-family: Inter, Segoe UI, Kalam, Roboto, Helvetica, Arial, sans-serif; font-weight: 700; letter-spacing:-0.4px;" data-final-font-size="30">
        <tspan x="0.0" dy="33.03px">Auditory</tspan>
      </text>
      <rect id="ITEM_1_HEAD_FRAME" x="0" y="-10" width="846" height="42" fill="none"/>
      <text id="ITEM_1_BODY" text-anchor="start" font-size="21" fill="var(--primary-text)" x="0.0" y="30.0" data-bg-id="ITEM_1_BG" style="font-size: 26px; font-family: Inter, Segoe UI, Kalam, Roboto, Helvetica, Arial, sans-serif; font-weight: 400;" data-final-font-size="26">
        <tspan x="0.0" dy="42.18px">Ears hear the beat but body feels the low end</tspan>
      </text>
      <rect id="ITEM_1_BODY_FRAME" x="0" y="30" width="846" height="114" fill="none"/>
    </g>
  </g>
  <g transform="translate(960.0, 400.0)">
    <rect id="ITEM_2_BG" x="-600" y="-64" width="1200" height="184" rx="18" fill="var(--accent-4)" stroke="var(--accent-2)" filter="url(#svg2f681994-shadow)" stroke-width="3" fill-opacity="0.4"/>
    <g transform="translate(-480.0, 0.0)">
      <circle r="45" fill="var(--background)" opacity="0.3"/>
      <circle id="ITEM_2_PAD" cx="0" cy="0" r="42" fill="var(--icon-pad-bg)" stroke="var(--primary-text)" opacity="0.9" fill-opacity="0.9" stroke-width="2"/>
      <circle id="ITEM_2_PAD_INNER" cx="0" cy="0" r="32.76" fill="var(--accent-4)" fill-opacity="0.22"/>
      <circle cx="0" cy="0" r="34" fill="none" stroke="var(--accent-1)" stroke-width="3" stroke-dasharray="6 4"/>
      <g id="ITEM_2_ICON" transform="translate(-34, -34)" data-icon-size="68" stroke-dasharray="6 4">
        <g transform="translate(-4.857142857142854,-4.857142857142857) scale(0.30357142857142855)" vector-effect="non-scaling-stroke" stroke-width="2.53" stroke-linecap="round" stroke-linejoin="round" stroke-opacity="1.0">
          <line x1="48" y1="40" x2="208" y2="216" fill="none" stroke="#f1f5f9" vector-effect="non-scaling-stroke"/>
          <path d="M87,35.3A80,80,0,0,1,208,104" fill="none" stroke="#f1f5f9" vector-effect="non-scaling-stroke"/>
          <path d="M160,216c-8.07,9.77-18.34,16-32,16a44,44,0,0,1-44-44c0-41.49-36-28-36-84A79.63,79.63,0,0,1,63.34,56.88" fill="none" stroke="#f1f5f9" vector-effect="non-scaling-stroke"/>
          <path d="M91.43,87.77A39.76,39.76,0,0,0,88,104" fill="none" stroke="#f1f5f9" vector-effect="non-scaling-stroke"/>
          <path d="M164,120a34,34,0,0,0,4-16,40,40,0,0,0-53-37.85" fill="none" stroke="#f1f5f9" vector-effect="non-scaling-stroke"/>
          <path d="M169.07,173.18A16,16,0,0,1,144,160a33.16,33.16,0,0,1,2.2-12" fill="none" stroke="#f1f5f9" vector-effect="non-scaling-stroke"/>
        </g>
      </g>
    </g>
    <g transform="translate(-330, -34)">
      <text id="ITEM_2_HEAD" text-anchor="start" font-weight="bold" font-size="29" fill="var(--primary-text)" x="0.0" y="-10.0" data-bg-id="ITEM_2_BG" fill-opacity="1.0" stroke="none" style="font-size: 30px; font-family: Inter, Segoe UI, Kalam, Roboto, Helvetica, Arial, sans-serif; font-weight: 700; letter-spacing:-0.4px;" data-final-font-size="30">
        <tspan x="0.0" dy="33.03px">Vestibular</tspan>
      </text>
      <rect id="ITEM_2_HEAD_FRAME" x="0" y="-10" width="846" height="42" fill="none"/>
      <text id="ITEM_2_BODY" text-anchor="start" font-size="21" fill="var(--primary-text)" x="0.0" y="30.0" data-bg-id="ITEM_2_BG" style="font-size: 26px; font-family: Inter, Segoe UI, Kalam, Roboto, Helvetica, Arial, sans-serif; font-weight: 400;" data-final-font-size="26">
        <tspan x="0.0" dy="42.18px">Inner ear balance systems respond to deep bass</tspan>
      </text>
      <rect id="ITEM_2_BODY_FRAME" x="0" y="30" width="846" height="114" fill="none"/>
    </g>
  </g>
  <g transform="translate(960.0, 580.0)">
    <rect id="ITEM_3_BG" x="-600" y="-64" width="1200" height="184" rx="18" fill="var(--accent-5)" stroke="var(--accent-3)" filter="url(#svg2f681994-shadow)" stroke-width="3" fill-opacity="0.4"/>
    <g transform="translate(-480.0, 0.0)">
      <circle r="45" fill="var(--background)" opacity="0.3"/>
      <circle id="ITEM_3_PAD" cx="0" cy="0" r="42" fill="var(--icon-pad-bg)" stroke="var(--primary-text)" opacity="0.9" fill-opacity="0.9" stroke-width="2"/>
      <circle id="ITEM_3_PAD_INNER" cx="0" cy="0" r="32.76" fill="var(--accent-5)" fill-opacity="0.22"/>
      <circle cx="0" cy="0" r="34" fill="none" stroke="var(--accent-2)" stroke-width="3" stroke-dasharray="6 4"/>
      <g id="ITEM_3_ICON" transform="translate(-34, -34)" data-icon-size="68" stroke-dasharray="6 4">
        <g transform="translate(-4.649572649572646,-0.5811965811965811) scale(3.0997150997150995)" vector-effect="non-scaling-stroke" fill="#f1f5f9" fill-opacity="1.0" stroke="none">
          <path fill="#f1f5f9" d="M10 .2C9 .2 8.2 1 8.2 2S9 3.8 10 3.8S11.8 3 11.8 2S11 .2 10 .2m5.67.8A7.33 7.33 0 0 0 23 8.33V7a6 6 0 0 1-6-6zm2.66 0c0 2.58 2.09 4.67 4.67 4.67V4.33c-1.84 0-3.33-1.49-3.33-3.33zM21 1a2 2 0 0 0 2 2V1zM7.92 4.03c-.17 0-.34.03-.5.08L2 5.8V11h1.8V7.33l2.11-.66L2 22h1.8l2.87-8.11L9 17v5h1.8v-6.41l-2.49-4.54l.73-2.87L10.12 10H15V8.2h-3.62l-2-3.33c-.3-.5-.84-.84-1.46-.84" vector-effect="non-scaling-stroke" stroke="none"/>
        </g>
      </g>
    </g>
    <g transform="translate(-330, -34)">
      <text id="ITEM_3_HEAD" text-anchor="start" font-weight="bold" font-size="29" fill="var(--primary-text)" x="0.0" y="-10.0" data-bg-id="ITEM_3_BG" fill-opacity="1.0" stroke="none" style="font-size: 30px; font-family: Inter, Segoe UI, Kalam, Roboto, Helvetica, Arial, sans-serif; font-weight: 700; letter-spacing:-0.4px;" data-final-font-size="30">
        <tspan x="0.0" dy="33.03px">Vibrotactile</tspan>
      </text>
      <rect id="ITEM_3_HEAD_FRAME" x="0" y="-10" width="846" height="42" fill="none"/>
      <text id="ITEM_3_BODY" text-anchor="start" font-size="21" fill="var(--primary-text)" x="0.0" y="30.0" data-bg-id="ITEM_3_BG" style="font-size: 26px; font-family: Inter, Segoe UI, Kalam, Roboto, Helvetica, Arial, sans-serif; font-weight: 400;" data-final-font-size="26">
        <tspan x="0.0" dy="42.18px">Skin and torso sense vibration from sub-bass</tspan>
      </text>
      <rect id="ITEM_3_BODY_FRAME" x="0" y="30" width="846" height="114" fill="none"/>
    </g>
  </g>
  <g transform="translate(960.0, 760.0)">
    <rect id="ITEM_4_BG" x="-600" y="-64" width="1200" height="184" rx="18" fill="var(--accent-6)" stroke="var(--accent-4)" filter="url(#svg2f681994-shadow)" stroke-width="3" fill-opacity="0.4"/>
    <g transform="translate(-480.0, 0.0)">
      <circle r="45" fill="var(--background)" opacity="0.3"/>
      <circle id="ITEM_4_PAD" cx="0" cy="0" r="42" fill="var(--icon-pad-bg)" stroke="var(--primary-text)" opacity="0.9" fill-opacity="0.9" stroke-width="2"/>
      <circle id="ITEM_4_PAD_INNER" cx="0" cy="0" r="32.76" fill="var(--accent-6)" fill-opacity="0.22"/>
      <circle cx="0" cy="0" r="34" fill="none" stroke="var(--accent-3)" stroke-width="3" stroke-dasharray="6 4"/>
      <g id="ITEM_4_ICON" transform="translate(-34, -34)" data-icon-size="68" stroke-dasharray="6 4">
        <g transform="translate(-2.88135593220339,-2.8813559322033893) scale(3.073446327683616)" vector-effect="non-scaling-stroke" stroke-width="2.53" stroke-linecap="round" stroke-linejoin="round" stroke-opacity="1.0">
          <path d="M12 12m-7 0a7 7 0 1 0 14 0a7 7 0 1 0 -14 0" vector-effect="non-scaling-stroke" fill="none" stroke="#f1f5f9"/>
          <path d="M5 12h-3" vector-effect="non-scaling-stroke" fill="none" stroke="#f1f5f9"/>
          <path d="M19 12h3" vector-effect="non-scaling-stroke" fill="none" stroke="#f1f5f9"/>
          <path d="M10 14v-4l2 2l2 -2v4" vector-effect="non-scaling-stroke" fill="none" stroke="#f1f5f9"/>
        </g>
      </g>
    </g>
    <g transform="translate(-330, -34)">
      <text id="ITEM_4_HEAD" text-anchor="start" font-weight="bold" font-size="29" fill="var(--primary-text)" x="0.0" y="-10.0" data-bg-id="ITEM_4_BG" fill-opacity="1.0" stroke="none" style="font-size: 30px; font-family: Inter, Segoe UI, Kalam, Roboto, Helvetica, Arial, sans-serif; font-weight: 700; letter-spacing:-0.4px;" data-final-font-size="30">
        <tspan x="0.0" dy="33.03px">Motor</tspan>
      </text>
      <rect id="ITEM_4_HEAD_FRAME" x="0" y="-10" width="846" height="42" fill="none"/>
      <text id="ITEM_4_BODY" text-anchor="start" font-size="21" fill="var(--primary-text)" x="0.0" y="30.0" data-bg-id="ITEM_4_BG" style="font-size: 26px; font-family: Inter, Segoe UI, Kalam, Roboto, Helvetica, Arial, sans-serif; font-weight: 400;" data-final-font-size="26">
        <tspan x="0.0" dy="42.18px">Legs and muscles align movement to the pulse</tspan>
      </text>
      <rect id="ITEM_4_BODY_FRAME" x="0" y="30" width="846" height="114" fill="none"/>
    </g>
  </g>
  <g transform="translate(960.0, 940.0)">
    <rect id="ITEM_5_BG" x="-600" y="-64" width="1200" height="184" rx="18" fill="var(--accent-1)" stroke="var(--accent-5)" filter="url(#svg2f681994-shadow)" stroke-width="3" fill-opacity="0.4"/>
    <g transform="translate(-480.0, 0.0)">
      <circle r="45" fill="var(--background)" opacity="0.3"/>
      <circle id="ITEM_5_PAD" cx="0" cy="0" r="42" fill="var(--icon-pad-bg)" stroke="var(--primary-text)" opacity="0.9" fill-opacity="0.9" stroke-width="2"/>
      <circle id="ITEM_5_PAD_INNER" cx="0" cy="0" r="32.76" fill="var(--accent-1)" fill-opacity="0.22"/>
      <circle cx="0" cy="0" r="34" fill="none" stroke="var(--accent-4)" stroke-width="3" stroke-dasharray="6 4"/>
      <g id="ITEM_5_ICON" transform="translate(-34, -34)" data-icon-size="68" stroke-dasharray="6 4">
        <g transform="translate(-2.83333333333333,-2.833333333333333) scale(1.8133333333333332)">
          <path d="m28.543,9.999c-.183.07-.366.143-.556.187l-.418,1.008c-.271.652-1.019.962-1.671.691s-.962-1.019-.691-1.671l.104-.251-.857-.248c-.615,1.29-1.87,2.547-3.38,3.694-4.097,3.112-10.047,5.422-10.047,5.422.011.015.021.028.032.043.982,1.359,1.954,2.547,2.904,3.586,3.042,3.331,5.846,5.13,7.975,6.102,2.34,1.067,3.862,1.136,3.992,1.14.006,0,.014,0,.014,0,.173-.763.333-1.51.483-2.243.041-.201.077-.393.117-.591.787-3.936,1.268-7.395,1.556-10.138.388-3.698.437-6.099.443-6.622,0-.069,0-.108,0-.11Z" fill="#be3637"/>
          <path d="m29.88,2.79l-2.33,2.59c-.49-.61-1.3-.74-1.88-.26-.63.52-.75,1.53-.27,2.27.2.3.47.51.77.61l-.82,1.96v.01l-.04-.01-.86-.24-.69-.21-1.95-.56c-.49-.14-.73-.69-.5-1.15l1.69-3.4h.01l.01.02c.02-.07.05-.14.08-.21.03-.08.07-.16.11-.23.09-.17.19-.33.31-.49.05-.07.1-.14.16-.21.12-.15.24-.28.38-.41.07-.07.15-.14.23-.2.13-.11.27-.21.42-.31.09-.06.19-.11.29-.16.14-.08.29-.15.44-.21.12-.04.23-.08.35-.12.15-.04.3-.07.46-.1.07-.02.14-.04.22-.05.05-.01.1,0,.15,0,.18-.02.36-.02.53-.01.12,0,.23,0,.35.01.19.03.37.07.55.11.1.03.2.05.3.08.19.06.38.15.56.24.08.04.17.07.25.12.19.11.36.25.53.38.06.05.13.09.19.14Z" fill="#ee9530"/>
          <path d="m24.87,38.92l-3.69-1.82c-.55-.27-.85-.85-.78-1.45,0-.06,0-.12.01-.19l1.53-6.9c2.34,1.07,3.86,1.14,3.99,1.14l-1.05,4.76,1.37,3.14c.39.87-.52,1.74-1.38,1.32Z" fill="#f5ca5f"/>
          <path d="m20.41,35.46c-.01.07-.01.13-.01.19l-.03-.01.04-.18Z" fill="#f5ca5f"/>
          <path d="m24.45,9.72c-.61,1.29-1.86,2.54-3.38,3.69l-6.69-.25c-.21.22-.46.41-.75.55-1.21.57-2.65.05-3.22-1.16-.57-1.21-.05-2.65,1.16-3.22.37-.18.76-.24,1.14-.22v-.01l11.05.41.69.21Z" fill="#f5ca5f"/>
          <path d="m37.38,16.03c-.02.01-.05.01-.07.02v.01l-3.65,2.14c-.63.37-1.33.56-2.05.56-.35,0-.71-.05-1.07-.14-1.04-.28-1.9-.96-2.44-1.89.39-3.7.44-6.1.44-6.62l2.69,4.8c.07.13.18.19.26.21s.2.03.33-.05l2.26-1.32c.07-.81.54-1.57,1.33-1.93,1.16-.55,2.54-.05,3.09,1.11.54,1.17.04,2.55-1.12,3.1Z" fill="#f5ca5f"/>
          <path d="m29.91,2.81c-.01,0-.02-.01-.03-.02l-2.33,2.59c-.49-.61-1.3-.74-1.88-.26-.63.52-.75,1.53-.27,2.27.2.3.47.51.77.61l-.82,1.96v.01l-.04-.01-.1.25c-.27.66.04,1.4.69,1.68.65.27,1.4-.04,1.67-.7l.42-1c.19-.05.37-.12.55-.19.61-.23,1.17-.59,1.64-1.1,1.61-1.75,1.48-4.48-.27-6.09Zm.26,3.47c-.21.02-.42-.25-.47-.62-.04-.37.09-.69.3-.72.21-.02.42.25.46.62.05.37-.08.69-.29.72Z" fill="#f5ca5f"/>
          <path d="m13.96,22.46l-5.68,1.3-.41.48c-.44.52-1.18.66-1.78.34l-3.64-1.92c-.84-.45-.67-1.7.26-1.89l3.69-.83,4.66-1.06c.98,1.35,1.95,2.54,2.9,3.58Z" fill="#f5ca5f"/>
          <path d="m30.166,6.278c.209-.026.342-.346.296-.716s-.253-.647-.463-.621-.342.346-.296.716.253.647.463.621Z"/>
        </g>
      </g>
    </g>
    <g transform="translate(-330, -34)">
      <text id="ITEM_5_HEAD" text-anchor="start" font-weight="bold" font-size="29" fill="var(--primary-text)" x="0.0" y="-10.0" data-bg-id="ITEM_5_BG" fill-opacity="1.0" stroke="none" style="font-size: 30px; font-family: Inter, Segoe UI, Kalam, Roboto, Helvetica, Arial, sans-serif; font-weight: 700; letter-spacing:-0.4px;" data-final-font-size="30">
        <tspan x="0.0" dy="33.03px">Entrainment</tspan>
      </text>
      <rect id="ITEM_5_HEAD_FRAME" x="0" y="-10" width="846" height="42" fill="none"/>
      <text id="ITEM_5_BODY" text-anchor="start" font-size="21" fill="var(--primary-text)" x="0.0" y="30.0" data-bg-id="ITEM_5_BG" style="font-size: 26px; font-family: Inter, Segoe UI, Kalam, Roboto, Helvetica, Arial, sans-serif; font-weight: 400;" data-final-font-size="26">
        <tspan x="0.0" dy="42.18px">Deep bass increases urge to move and sync</tspan>
      </text>
      <rect id="ITEM_5_BODY_FRAME" x="0" y="30" width="846" height="114" fill="none"/>
    </g>
  </g>
</svg>
